<?xml version="1.0" encoding="UTF-8" standalone="no"?>
<!DOCTYPE svg PUBLIC "-//W3C//DTD SVG 1.1//EN" "http://www.w3.org/Graphics/SVG/1.1/DTD/svg11.dtd">
<svg width="100%" height="100%" viewBox="0 0 408 49" version="1.1" xmlns="http://www.w3.org/2000/svg" xmlns:xlink="http://www.w3.org/1999/xlink" xml:space="preserve" xmlns:serif="http://www.serif.com/" style="fill-rule:evenodd;clip-rule:evenodd;stroke-linejoin:round;stroke-miterlimit:2;">
    <g transform="matrix(1,0,0,1,-60.9136,-625.826)">
        <g transform="matrix(1,0,0,1,457.999,673.842)">
            <path d="M0,-47.805C-4.955,-47.805 -9.307,-44.056 -10.313,-39.503L-6.361,-33.744C-6.219,-33.461 -6.479,-33.177 -6.714,-33.177C-6.813,-33.177 -6.905,-33.226 -6.964,-33.344L-17.877,-44.056C-19.886,-46.065 -22.831,-47.805 -26.046,-47.805C-31.938,-47.805 -36.758,-42.918 -36.758,-37.093L-36.758,-10.713C-36.758,-4.688 -31.938,0 -26.046,0C-21.023,0 -16.672,-3.482 -15.668,-8.102L-19.484,-13.994C-19.639,-14.355 -19.316,-14.795 -19.069,-14.795C-18.995,-14.795 -18.928,-14.756 -18.882,-14.663C-15.132,-10.713 -11.315,-7.098 -7.365,-3.282C-5.31,-1.202 -2.545,-0.207 0.206,-0.207C5.519,-0.207 10.779,-3.92 10.779,-10.713L10.779,-37.093C10.779,-42.918 5.959,-47.805 0,-47.805M0,-45.505C4.676,-45.505 8.479,-41.732 8.479,-37.093L8.479,-10.713C8.479,-5.326 4.317,-2.507 0.206,-2.507C-2.097,-2.507 -4.205,-3.357 -5.729,-4.899C-5.742,-4.911 -5.755,-4.923 -5.768,-4.936L-7.578,-6.682C-10.876,-9.859 -13.993,-12.862 -17.093,-16.119C-17.564,-16.731 -18.285,-17.095 -19.069,-17.095C-19.96,-17.095 -20.805,-16.62 -21.329,-15.826C-21.876,-14.996 -21.979,-13.973 -21.599,-13.089C-21.548,-12.969 -21.486,-12.854 -21.415,-12.744L-18.162,-7.722C-19.273,-4.576 -22.508,-2.3 -26.046,-2.3C-30.763,-2.3 -34.458,-5.995 -34.458,-10.713L-34.458,-37.093C-34.458,-41.653 -30.605,-45.505 -26.046,-45.505C-22.916,-45.505 -20.428,-43.354 -19.488,-42.414L-8.724,-31.848C-8.238,-31.239 -7.508,-30.877 -6.714,-30.877C-5.793,-30.877 -4.914,-31.373 -4.422,-32.173C-3.93,-32.969 -3.887,-33.943 -4.307,-34.777C-4.354,-34.87 -4.406,-34.959 -4.465,-35.045L-7.805,-39.914C-6.661,-43.114 -3.404,-45.505 0,-45.505" style="fill-rule:nonzero;"/>
        </g>
        <g transform="matrix(1,0,0,1,391.736,645.421)">
            <path d="M0,8.76C-0.271,8.76 -0.541,8.675 -0.771,8.509C-1.173,8.216 -1.375,7.72 -1.291,7.228L-0.691,3.734L-3.23,1.259C-3.588,0.91 -3.716,0.391 -3.563,-0.084C-3.407,-0.558 -2.997,-0.904 -2.504,-0.975L1.004,-1.486L2.573,-4.665C2.794,-5.112 3.25,-5.394 3.749,-5.394C4.247,-5.394 4.703,-5.112 4.924,-4.665L6.492,-1.486L10.001,-0.975C10.494,-0.904 10.904,-0.558 11.059,-0.084C11.213,0.391 11.084,0.91 10.728,1.259L8.188,3.734L8.788,7.228C8.872,7.72 8.67,8.216 8.267,8.509C8.038,8.675 7.768,8.76 7.496,8.76C7.287,8.76 7.078,8.709 6.887,8.609L3.749,6.96L0.61,8.609C0.419,8.709 0.209,8.76 0,8.76M3.749,-19.595C-8.862,-19.595 -19.084,-9.374 -19.084,3.236L-19.083,17.708C-19.083,23.734 -14.263,28.355 -8.438,28.355C-2.479,28.355 2.208,23.734 2.208,17.708L2.208,15.432C2.208,14.628 2.878,13.959 3.681,13.959C4.485,13.959 5.154,14.628 5.154,15.432L5.154,17.708C5.154,23.601 9.976,28.355 15.934,28.355C21.759,28.355 26.579,23.601 26.579,17.708L26.581,3.236C26.581,-9.374 16.358,-19.595 3.749,-19.595M-0.523,-3.588L-2.833,-3.252C-4.203,-3.053 -5.32,-2.112 -5.749,-0.795C-6.177,0.522 -5.827,1.939 -4.836,2.906L-3.163,4.536L-3.559,6.841C-3.791,8.204 -3.24,9.557 -2.122,10.369C-1.501,10.822 -0.767,11.06 0,11.06C0.584,11.06 1.165,10.915 1.68,10.645L3.749,9.558L5.816,10.645C6.334,10.916 6.915,11.06 7.496,11.06C8.263,11.06 8.997,10.823 9.618,10.37C10.737,9.557 11.288,8.204 11.055,6.839L10.66,4.536L12.336,2.905C13.324,1.937 13.673,0.519 13.246,-0.795C12.817,-2.112 11.7,-3.053 10.332,-3.252L8.02,-3.588L6.986,-5.682C6.374,-6.924 5.134,-7.694 3.749,-7.694C2.364,-7.694 1.123,-6.924 0.511,-5.683L-0.523,-3.588M3.749,-17.297C15.07,-17.297 24.281,-8.086 24.281,3.236L24.279,17.708C24.279,22.311 20.535,26.055 15.934,26.055C11.258,26.055 7.454,22.311 7.454,17.708L7.454,15.432C7.454,13.352 5.762,11.659 3.681,11.659C1.601,11.659 -0.092,13.352 -0.092,15.432L-0.092,17.708C-0.092,22.466 -3.68,26.055 -8.438,26.055C-13.117,26.055 -16.783,22.389 -16.783,17.708L-16.784,3.236C-16.784,-8.086 -7.573,-17.297 3.749,-17.297" style="fill-rule:nonzero;"/>
        </g>
        <g transform="matrix(1,0,0,1,358.632,673.775)">
            <path d="M0,-47.605C-5.959,-47.605 -10.78,-42.851 -10.78,-37.026L-10.78,-34.615C-10.78,-33.878 -11.449,-33.209 -12.253,-33.209C-13.057,-33.209 -13.728,-33.878 -13.728,-34.615L-13.728,-37.026C-13.728,-42.984 -18.413,-47.605 -24.371,-47.605C-30.197,-47.605 -35.018,-42.984 -35.018,-37.026L-35.018,-10.646C-35.018,-4.621 -30.197,0 -24.371,0C-18.413,0 -13.728,-4.621 -13.728,-10.646L-13.728,-12.922C-13.728,-13.726 -13.057,-14.395 -12.253,-14.395C-11.449,-14.395 -10.78,-13.726 -10.78,-12.922L-10.78,-10.646C-10.78,-4.753 -5.959,0 0,0C5.824,0 10.645,-4.753 10.645,-10.646L10.645,-37.026C10.645,-42.851 5.824,-47.605 0,-47.605M0,-45.305C4.602,-45.305 8.345,-41.591 8.345,-37.026L8.345,-10.646C8.345,-6.043 4.602,-2.299 0,-2.299C-4.676,-2.299 -8.48,-6.043 -8.48,-10.646L-8.48,-12.922C-8.48,-15.002 -10.173,-16.695 -12.253,-16.695C-14.334,-16.695 -16.026,-15.002 -16.026,-12.922L-16.026,-10.646C-16.026,-5.888 -19.614,-2.299 -24.371,-2.299C-29.052,-2.299 -32.718,-5.965 -32.718,-10.646L-32.718,-37.026C-32.718,-41.591 -28.974,-45.305 -24.371,-45.305C-19.692,-45.305 -16.026,-41.668 -16.026,-37.026L-16.026,-34.615C-16.026,-32.606 -14.299,-30.91 -12.253,-30.91C-10.208,-30.91 -8.48,-32.606 -8.48,-34.615L-8.48,-37.026C-8.48,-41.591 -4.676,-45.305 0,-45.305" style="fill-rule:nonzero;"/>
        </g>
        <g transform="matrix(1,0,0,1,308.952,673.708)">
            <path d="M0,-47.604L-9.373,-47.604C-22.43,-47.403 -33.075,-37.092 -33.075,-23.835C-33.075,-11.18 -22.563,0 -9.709,0L0,0C6.227,0 11.314,-5.29 11.314,-11.315C11.314,-17.608 6.227,-22.965 0,-22.965C-3.348,-22.965 -5.959,-21.424 -7.968,-21.424C-9.373,-21.424 -10.579,-22.497 -10.579,-23.835C-10.579,-25.241 -9.373,-26.446 -7.968,-26.446C-5.959,-26.446 -3.348,-24.907 0,-24.907C6.227,-24.907 11.314,-29.928 11.314,-36.221C11.314,-42.248 6.227,-47.604 0,-47.604M0,-45.304C4.803,-45.304 9.016,-41.06 9.016,-36.221C9.016,-31.25 4.971,-27.207 0,-27.207C-1.554,-27.207 -2.965,-27.625 -4.329,-28.028C-5.578,-28.397 -6.758,-28.746 -7.968,-28.746C-10.63,-28.746 -12.879,-26.498 -12.879,-23.835C-12.879,-21.238 -10.676,-19.125 -7.968,-19.125C-6.758,-19.125 -5.578,-19.473 -4.329,-19.843C-2.964,-20.248 -1.553,-20.666 0,-20.666C4.887,-20.666 9.016,-16.383 9.016,-11.315C9.016,-6.428 4.887,-2.299 0,-2.299L-9.709,-2.299C-21.128,-2.299 -30.775,-12.162 -30.775,-23.835C-30.775,-35.689 -21.358,-45.119 -9.373,-45.304L0,-45.304" style="fill-rule:nonzero;"/>
        </g>
        <g transform="matrix(1,0,0,1,251.611,636.816)">
            <path d="M0,26.313L0,24.037C0,23.233 -0.669,22.564 -1.473,22.564C-2.276,22.564 -2.945,23.233 -2.945,24.037L-2.945,26.313C-2.945,32.338 -7.633,36.959 -13.592,36.959C-19.416,36.959 -24.237,32.338 -24.237,26.313L-24.237,-0.067C-24.237,-6.025 -19.416,-10.646 -13.592,-10.646C-7.633,-10.646 -2.945,-6.025 -2.945,-0.067L-2.945,2.344C-2.945,3.081 -2.276,3.75 -1.473,3.75C-0.669,3.75 0,3.081 0,2.344L0,-0.067C0,-5.892 4.82,-10.646 10.779,-10.646C16.603,-10.646 21.424,-5.892 21.424,-0.067L21.424,26.313C21.424,32.206 16.603,36.959 10.779,36.959C4.82,36.959 0,32.206 0,26.313" style="fill-rule:nonzero;"/>
        </g>
        <g transform="matrix(1,0,0,1,212.878,673.708)">
            <path d="M0,-47.604C6.227,-47.604 11.315,-42.248 11.315,-36.221C11.315,-29.928 6.227,-24.907 0,-24.907C-3.348,-24.907 -5.958,-26.446 -7.967,-26.446C-9.374,-26.446 -10.579,-25.241 -10.579,-23.835C-10.579,-22.497 -9.374,-21.424 -7.967,-21.424C-5.958,-21.424 -3.348,-22.965 0,-22.965C6.227,-22.965 11.315,-17.608 11.315,-11.315C11.315,-5.29 6.227,0 0,0L-9.708,0C-22.563,0 -33.075,-11.18 -33.075,-23.835C-33.075,-37.092 -22.43,-47.403 -9.374,-47.604L0,-47.604Z" style="fill-rule:nonzero;"/>
        </g>
        <g transform="matrix(1,0,0,1,145.106,636.885)">
            <path d="M0,25.977L0,-0.203C0,-6.027 4.753,-10.847 10.646,-10.847C16.604,-10.847 21.358,-6.027 21.358,-0.203L21.224,15.399L23.568,15.399C37.494,15.399 37.494,36.824 23.568,36.824L10.846,36.824C4.62,36.824 -0.201,32.137 0,25.977" style="fill-rule:nonzero;"/>
        </g>
        <g transform="matrix(1,0,0,1,120.158,637.018)">
            <path d="M0,25.91L0,-0.201C0,-6.028 4.687,-10.713 10.579,-10.713C16.671,-10.713 21.359,-6.028 21.359,-0.201L21.359,25.91C21.359,31.736 16.671,36.623 10.579,36.623C4.687,36.623 0,31.736 0,25.91" style="fill-rule:nonzero;"/>
        </g>
        <g transform="matrix(1,0,0,1,105.762,673.642)">
            <path d="M0,-47.337C-3.737,-47.337 -5.522,-46.208 -8.863,-42.581C-12.204,-38.956 -15.61,-34.627 -15.61,-34.627C-15.449,-34.316 -12.945,-29.959 -12.908,-29.445C-12.872,-28.931 -13.349,-29.243 -13.704,-29.556C-14.141,-29.94 -22.787,-39.785 -25.106,-42.625C-27.426,-45.465 -30.289,-47.337 -34.134,-47.337C-40.026,-47.337 -44.713,-42.649 -44.713,-36.825L-44.713,-10.713C-44.713,-4.888 -40.026,0 -34.134,0C-29.87,0 -26.31,-2.401 -24.551,-5.836C-25.025,-6.555 -28.111,-11.071 -28.365,-11.704C-28.576,-12.232 -28.304,-12.14 -28.164,-12.089C-28.096,-12.064 -27.791,-11.978 -25.543,-9.718C-24.95,-9.12 -23.718,-7.989 -23.716,-7.999C-21.889,-6.554 -19.505,-5.62 -16.966,-5.62C-14.326,-5.62 -12.005,-6.548 -10.215,-7.985C-10.213,-7.98 -5.942,-11.944 -5.77,-12.089C-5.597,-12.233 -5.291,-12.232 -5.568,-11.704C-5.885,-11.101 -8.91,-6.552 -9.386,-5.831C-7.637,-2.399 -4.121,0 0,0C6.093,0 10.78,-4.888 10.78,-10.713L10.78,-36.825C10.78,-42.649 6.093,-47.337 0,-47.337" style="fill-rule:nonzero;"/>
        </g>
    </g>
</svg>
