<?xml version="1.0" encoding="UTF-8" standalone="no"?>
<!DOCTYPE svg PUBLIC "-//W3C//DTD SVG 1.1//EN" "http://www.w3.org/Graphics/SVG/1.1/DTD/svg11.dtd">
<svg width="100%" height="100%" viewBox="0 0 156 208" version="1.1" xmlns="http://www.w3.org/2000/svg" xmlns:xlink="http://www.w3.org/1999/xlink" xml:space="preserve" xmlns:serif="http://www.serif.com/" style="fill-rule:evenodd;clip-rule:evenodd;stroke-miterlimit:10;">
    <g id="Merku" transform="matrix(0.49686,0,0,0.49686,-69.6898,-108.015)">
        <g transform="matrix(1,0,0,1,284.408,577.065)">
            <path d="M0,-181.69L-72.822,-195.805C-86.972,-113.47 -143.555,-33.523 -143.555,-33.523C-122.734,-17.751 -99.81,-7.074 -79.456,0.102C-64.989,-31.844 -49.087,-74.779 -49.087,-74.779C-53.215,-45.137 -63.89,-13.15 -69.888,3.289C-41.812,12.103 -20.687,14.115 -20.687,14.115C3.443,-73.826 0,-181.69 0,-181.69" style="fill:url(#_Linear1);fill-rule:nonzero;"/>
        </g>
        <g transform="matrix(-0.956352,-0.292219,-0.292219,0.956352,161.619,372.108)">
            <path d="M-5.5,-36.822C5.445,-23.021 5.166,-15.264 3.665,-12.063C2.164,-8.862 -5.5,0.822 -5.5,0.822L-16.458,-19.78L-5.5,-36.822Z" style="fill:rgb(199,206,198);fill-rule:nonzero;"/>
        </g>
        <g transform="matrix(-0.95543,-0.295217,-0.295217,0.95543,148.997,413.921)">
            <path d="M-33.719,-94.591C2.45,-60.912 1.956,-47.458 -0.961,-36.323C-3.878,-25.188 -24.79,1.843 -33.719,-1.439C-42.648,-4.721 -55.34,-28.006 -55.34,-28.006L-33.719,-94.591Z" style="fill:rgb(220,218,214);fill-rule:nonzero;"/>
        </g>
        <g transform="matrix(1,0,0,1,181.639,420.5)">
            <path d="M0,-33C-11.5,-13.5 -7.016,-7 -3.516,-3.5C-0.016,0 14.984,-7 14.984,-7L0,-33Z" style="fill:rgb(199,206,198);fill-rule:nonzero;"/>
        </g>
        <g transform="matrix(1,0,0,1,177.877,399)">
            <path d="M0,-38.5C-13,-21 -8.5,0 -8.5,0C-2.5,-18 4.5,-23.5 4.5,-23.5L0,-38.5Z" style="fill:rgb(199,206,198);fill-rule:nonzero;"/>
        </g>
        <g transform="matrix(1,0,0,1,212.986,518)">
            <path d="M0,-119.5L-25.5,-123.5C-37,-61.5 -70.5,-21 -70.5,-21C-60.114,-15.142 -46.184,-8.433 -35.429,-3.439C-26.603,-16.369 -18,-34 -18,-34C-19.934,-22.787 -26.349,-7.098 -29.159,-0.557C-23.062,2.223 -19,4 -19,4C3,-43.5 0,-119.5 0,-119.5" style="fill:url(#_Linear2);fill-rule:nonzero;"/>
        </g>
        <g transform="matrix(-0.850672,-0.525696,-0.525696,0.850672,128.206,372.1)">
            <path d="M-76.236,-214.155C-30.486,-191.173 10.004,-138.253 -12.082,-76.352C-28.227,-31.107 -47.533,-9.506 -76.236,-4.909C-104.939,-0.312 -101.799,-154.718 -101.799,-154.718L-76.236,-214.155Z" style="fill:rgb(220,218,214);fill-rule:nonzero;"/>
        </g>
        <g transform="matrix(1,0,0,1,181.166,315.455)">
            <path d="M0,-23.94C-6.748,-24.429 -12.457,-6.352 -7.785,-2.931C-3.115,0.489 0,-23.94 0,-23.94" style="fill:rgb(255,254,242);fill-rule:nonzero;"/>
        </g>
        <g transform="matrix(1,0,0,1,185.484,265.765)">
            <path d="M0,65.639C3.409,84.216 30.437,80.821 34.379,62.642C38.486,43.703 25.745,39.698 11.583,29.487C-6.445,16.489 -15.13,4.342 -20.79,-7.117C-26.451,-18.577 -33.815,16.626 -20.817,26.574C-40.603,29.707 -29.927,51.844 -21.985,50.47C-35.697,63.248 -9.976,70.365 0,65.639" style="fill:rgb(255,254,242);fill-rule:nonzero;"/>
        </g>
        <g transform="matrix(1,0,0,1,185.484,313.067)">
            <path d="M0,18.337C-0.771,-3.456 21.737,1.023 22.644,8.223C23.552,15.423 15.848,21.793 12.174,17.924C7.558,13.06 12.477,10.999 12.477,10.999" style="fill:rgb(255,254,242);fill-rule:nonzero;"/>
        </g>
        <g transform="matrix(1,0,0,1,185.484,315.537)">
            <path d="M0,15.867C0,15.867 -0.029,15.625 -0.083,15.171C-0.12,14.713 -0.261,14.058 -0.255,13.192C-0.298,12.325 -0.284,11.27 -0.145,10.059C0.022,8.854 0.266,7.47 0.871,6.04C1.462,4.615 2.356,3.11 3.698,1.843C5.017,0.566 6.749,-0.48 8.692,-1.006C10.624,-1.563 12.724,-1.737 14.797,-1.428C16.867,-1.128 18.936,-0.462 20.799,0.778C21.713,1.418 22.583,2.21 23.242,3.263C23.569,3.784 23.845,4.381 23.981,5.032L24.081,5.521L24.086,5.552C24.08,5.47 24.102,5.698 24.1,5.682L24.102,5.727L24.105,5.817L24.114,5.996L24.146,6.712C24.195,9.004 23.463,11.072 22.398,12.795C21.331,14.527 19.863,15.913 18.17,16.792C17.77,17.041 17.283,17.163 16.852,17.336C16.389,17.453 15.92,17.565 15.447,17.586C14.961,17.576 14.493,17.604 14.03,17.453C13.801,17.389 13.569,17.354 13.358,17.26C13.153,17.151 12.95,17.044 12.749,16.938C11.983,16.491 11.4,15.769 11.062,15.273C10.675,14.721 10.287,14.064 10.074,13.465C9.834,12.858 9.732,12.218 9.768,11.637C9.834,11.052 10.007,10.536 10.273,10.149C10.776,9.351 11.43,9.023 11.825,8.802C12.24,8.593 12.477,8.529 12.477,8.529C12.477,8.529 12.26,8.647 11.915,8.937C11.583,9.227 11.085,9.702 10.802,10.426C10.506,11.145 10.564,12.076 11.119,12.99C11.391,13.467 11.713,13.861 12.163,14.331C12.66,14.851 13.037,15.192 13.559,15.418C14.567,15.853 15.874,15.63 17.077,14.837C18.278,14.067 19.339,12.855 20.118,11.462C20.912,10.069 21.281,8.396 21.253,6.869L21.208,6.154L21.197,5.975L21.188,5.84C21.187,5.809 21.204,6.023 21.195,5.927L21.191,5.913L21.135,5.699C21.12,5.555 21.047,5.411 20.984,5.266C20.939,5.117 20.833,4.976 20.745,4.83C20.37,4.25 19.779,3.709 19.105,3.251C17.756,2.31 16.057,1.703 14.367,1.433C13.518,1.284 12.663,1.255 11.82,1.239C10.983,1.281 10.146,1.337 9.361,1.543C7.777,1.903 6.335,2.578 5.171,3.518C4.008,4.456 3.097,5.603 2.416,6.784C1.744,7.972 1.314,9.188 0.975,10.285C0.679,11.395 0.454,12.388 0.338,13.216C0.183,14.039 0.139,14.72 0.079,15.17C0.027,15.625 0,15.867 0,15.867" style="fill:rgb(0,249,255);fill-rule:nonzero;"/>
        </g>
        <g transform="matrix(1,0,0,1,310.084,577.065)">
            <path d="M0,-181.69L72.822,-195.805C86.972,-113.47 143.555,-33.523 143.555,-33.523C122.734,-17.751 99.81,-7.074 79.456,0.102C64.989,-31.844 49.087,-74.779 49.087,-74.779C53.215,-45.137 63.89,-13.15 69.888,3.289C41.812,12.103 20.687,14.115 20.687,14.115C-3.443,-73.826 0,-181.69 0,-181.69" style="fill:url(#_Linear3);fill-rule:nonzero;"/>
        </g>
        <g transform="matrix(-0.956352,0.292219,0.292219,0.956352,432.873,372.108)">
            <path d="M5.5,-36.822C-5.445,-23.021 -5.166,-15.264 -3.665,-12.063C-2.164,-8.862 5.5,0.822 5.5,0.822L16.458,-19.78L5.5,-36.822Z" style="fill:rgb(199,206,198);fill-rule:nonzero;"/>
        </g>
        <g transform="matrix(-0.95543,0.295217,0.295217,0.95543,445.495,413.921)">
            <path d="M33.719,-94.591C-2.45,-60.912 -1.956,-47.458 0.961,-36.323C3.878,-25.188 24.79,1.843 33.719,-1.439C42.648,-4.721 55.34,-28.006 55.34,-28.006L33.719,-94.591Z" style="fill:rgb(220,218,214);fill-rule:nonzero;"/>
        </g>
        <g transform="matrix(1,0,0,1,412.853,420.5)">
            <path d="M0,-33C11.5,-13.5 7.016,-7 3.516,-3.5C0.016,0 -14.984,-7 -14.984,-7L0,-33Z" style="fill:rgb(199,206,198);fill-rule:nonzero;"/>
        </g>
        <g transform="matrix(1,0,0,1,416.615,399)">
            <path d="M0,-38.5C13,-21 8.5,0 8.5,0C2.5,-18 -4.5,-23.5 -4.5,-23.5L0,-38.5Z" style="fill:rgb(199,206,198);fill-rule:nonzero;"/>
        </g>
        <g transform="matrix(1,0,0,1,381.506,518)">
            <path d="M0,-119.5L25.5,-123.5C37,-61.5 70.5,-21 70.5,-21C60.114,-15.142 46.184,-8.433 35.429,-3.439C26.603,-16.369 18,-34 18,-34C19.934,-22.787 26.349,-7.098 29.159,-0.557C23.062,2.223 19,4 19,4C-3,-43.5 0,-119.5 0,-119.5" style="fill:url(#_Linear4);fill-rule:nonzero;"/>
        </g>
        <g transform="matrix(1,0,0,1,318.957,513.284)">
            <path d="M0,-40.815C6.008,-47.384 17.639,-45.217 29.588,-28.165C37.979,-16.19 53.611,-10.645 53.611,-10.645L44.381,6.569C16.459,-3.137 -2.164,-18.882 -3.752,-27.729C-5.584,-37.95 0,-40.815 0,-40.815" style="fill:rgb(255,254,243);fill-rule:nonzero;"/>
        </g>
        <g transform="matrix(1,0,0,1,371.348,529.851)">
            <path d="M0,-25.363C-10.195,-22.131 -3.979,-9.697 -2.486,-7.956C-0.994,-6.215 1.492,-1.242 5.223,0.001C8.953,1.244 7.461,-6.713 7.461,-6.713C7.461,-6.713 10.088,-6.563 16.662,-7.46C27.604,-8.952 27.852,-18.649 21.883,-21.882C15.666,-26.607 0,-25.363 0,-25.363" style="fill:rgb(255,254,243);fill-rule:nonzero;"/>
        </g>
        <g transform="matrix(1,0,0,1,349.961,483.35)">
            <path d="M0,39.538C5.969,39.787 16.662,39.538 16.662,39.538L24.121,21.137C15.668,3.729 6.715,-0.249 6.715,-0.249C-4.971,5.471 -3.977,20.142 -0.246,25.364C-9.695,31.581 0,39.538 0,39.538" style="fill:rgb(255,254,243);fill-rule:nonzero;"/>
        </g>
        <g transform="matrix(1,0,0,1,365.629,515.676)">
            <clipPath id="_clip5">
                <path d="M-15.914,-6.962C-25.363,-0.745 -15.669,7.212 -15.669,7.212C-9.7,7.461 0.994,7.212 0.994,7.212L8.453,-11.19C0,-28.597 -8.954,-32.575 -8.954,-32.575C-20.639,-26.855 -19.645,-12.183 -15.914,-6.962Z" clip-rule="nonzero"/>
            </clipPath>
            <g clip-path="url(#_clip5)">
                <path d="M0,-31.083C-11.688,-25.612 -11.688,-9.698 -9.449,-5.222C-17.406,-1.243 -11.688,5.968 -9.945,8.455C-8.205,10.942 -20.391,10.693 -20.391,10.693L-23.125,1.244L-26.607,-22.877C-26.607,-22.877 -21.137,-42.025 -19.893,-41.776C-18.65,-41.527 -5.471,-40.284 -5.471,-40.284L0,-31.083Z" style="fill:rgb(255,213,0);fill-rule:nonzero;"/>
            </g>
        </g>
        <g transform="matrix(-0.838269,-0.545257,-0.545257,0.838269,360.791,516.219)">
            <path d="M-7.048,-19.039C-3.952,-19.693 -2.692,-18.417 -2.692,-18.417C1.079,-8.25 -7.048,3.848 -7.048,3.848L-11.162,0.992C-6.02,-7.827 -7.048,-19.039 -7.048,-19.039" style="fill:rgb(0,211,255);fill-rule:nonzero;"/>
        </g>
        <g transform="matrix(-0.850672,0.525696,0.525696,0.850672,466.286,372.1)">
            <path d="M76.236,-214.155C30.486,-191.173 -10.004,-138.253 12.082,-76.352C28.227,-31.107 47.533,-9.506 76.236,-4.909C104.939,-0.312 101.799,-154.718 101.799,-154.718L76.236,-214.155Z" style="fill:rgb(220,218,214);fill-rule:nonzero;"/>
        </g>
        <g transform="matrix(1,0,0,1,275.888,511.78)">
            <path d="M0,-40.815C-6.01,-47.384 -17.639,-45.217 -29.588,-28.165C-37.979,-16.19 -53.613,-10.645 -53.613,-10.645L-44.383,6.569C-16.461,-3.137 2.164,-18.882 3.75,-27.729C5.584,-37.95 0,-40.815 0,-40.815" style="fill:rgb(255,254,243);fill-rule:nonzero;"/>
        </g>
        <g transform="matrix(1,0,0,1,219.275,529.984)">
            <path d="M0,-25.363C10.195,-22.131 3.98,-9.697 2.488,-7.956C0.996,-6.215 -1.49,-1.242 -5.221,0.001C-8.951,1.244 -7.459,-6.713 -7.459,-6.713C-7.459,-6.713 -10.086,-6.563 -16.66,-7.46C-27.602,-8.952 -27.85,-18.649 -21.883,-21.882C-15.666,-26.607 0,-25.363 0,-25.363" style="fill:rgb(255,254,243);fill-rule:nonzero;"/>
        </g>
        <g transform="matrix(1,0,0,1,240.662,483.483)">
            <path d="M0,39.538C-5.967,39.787 -16.66,39.538 -16.66,39.538L-24.121,21.137C-15.668,3.729 -6.715,-0.249 -6.715,-0.249C4.973,5.471 3.979,20.142 0.248,25.364C9.697,31.581 0,39.538 0,39.538" style="fill:rgb(255,254,243);fill-rule:nonzero;"/>
        </g>
        <g transform="matrix(1,0,0,1,224.994,515.81)">
            <clipPath id="_clip6">
                <path d="M-8.453,-11.189L-0.992,7.212C-0.992,7.212 9.701,7.461 15.668,7.212C15.668,7.212 25.366,-0.745 15.916,-6.962C19.646,-12.184 20.641,-26.855 8.953,-32.575C8.953,-32.575 -0,-28.597 -8.453,-11.189Z" clip-rule="nonzero"/>
            </clipPath>
            <g clip-path="url(#_clip6)">
                <path d="M0,-31.083C11.688,-25.612 11.689,-9.698 9.451,-5.222C17.408,-1.243 11.688,5.968 9.947,8.455C8.207,10.942 20.393,10.693 20.393,10.693L23.127,1.244L26.609,-22.877C26.609,-22.877 21.137,-42.025 19.895,-41.776C18.65,-41.527 5.471,-40.284 5.471,-40.284L0,-31.083Z" style="fill:rgb(255,213,0);fill-rule:nonzero;"/>
            </g>
        </g>
        <g transform="matrix(-0.824643,0.565653,0.565653,0.824643,229.793,515.859)">
            <path d="M7.279,-18.897C4.168,-19.476 2.485,-18.047 2.485,-18.047C-1.034,-7.792 7.279,3.988 7.279,3.988L11.429,1.148C6.072,-7.542 7.279,-18.897 7.279,-18.897" style="fill:rgb(0,211,255);fill-rule:nonzero;"/>
        </g>
        <g transform="matrix(1,0,0,1,240.661,588.121)">
            <path d="M0,-3.654C-0.143,-4.092 -0.521,-4.413 -0.979,-4.479L-4.703,-5.02L-6.369,-8.395C-6.574,-8.809 -6.994,-9.071 -7.457,-9.071C-7.918,-9.071 -8.34,-8.809 -8.543,-8.395L-10.209,-5.02L-13.934,-4.479C-14.391,-4.413 -14.77,-4.092 -14.912,-3.654C-15.055,-3.216 -14.936,-2.733 -14.605,-2.411L-11.91,0.216L-12.547,3.925C-12.625,4.38 -12.438,4.839 -12.064,5.111C-11.691,5.382 -11.195,5.417 -10.787,5.203L-7.457,3.452L-4.125,5.203C-3.947,5.296 -3.754,5.343 -3.561,5.343C-3.309,5.343 -3.059,5.265 -2.848,5.111C-2.475,4.839 -2.287,4.38 -2.365,3.925L-3.002,0.216L-0.307,-2.411C0.023,-2.733 0.143,-3.216 0,-3.654" style="fill:rgb(255,213,0);fill-rule:nonzero;"/>
        </g>
        <g transform="matrix(1,0,0,1,213.977,559.197)">
            <path d="M0,-3.654C-0.143,-4.092 -0.521,-4.413 -0.979,-4.479L-4.703,-5.02L-6.369,-8.395C-6.572,-8.809 -6.994,-9.071 -7.455,-9.071C-7.918,-9.071 -8.338,-8.809 -8.543,-8.395L-10.209,-5.02L-13.934,-4.479C-14.391,-4.413 -14.77,-4.092 -14.912,-3.654C-15.055,-3.216 -14.936,-2.733 -14.605,-2.411L-11.91,0.216L-12.547,3.925C-12.625,4.38 -12.438,4.839 -12.064,5.111C-11.691,5.382 -11.195,5.417 -10.787,5.203L-7.455,3.452L-4.125,5.203C-3.947,5.296 -3.754,5.343 -3.561,5.343C-3.309,5.343 -3.059,5.265 -2.848,5.111C-2.475,4.839 -2.287,4.38 -2.365,3.925L-3.002,0.216L-0.307,-2.411C0.023,-2.733 0.143,-3.216 0,-3.654" style="fill:rgb(255,213,0);fill-rule:nonzero;"/>
        </g>
        <g transform="matrix(1,0,0,1,368.399,583.877)">
            <path d="M0,-3.654C-0.143,-4.092 -0.521,-4.413 -0.979,-4.479L-4.703,-5.02L-6.369,-8.395C-6.574,-8.809 -6.994,-9.071 -7.457,-9.071C-7.918,-9.071 -8.34,-8.809 -8.543,-8.395L-10.209,-5.02L-13.934,-4.479C-14.391,-4.413 -14.77,-4.092 -14.912,-3.654C-15.055,-3.216 -14.936,-2.733 -14.605,-2.411L-11.91,0.216L-12.547,3.925C-12.625,4.38 -12.438,4.839 -12.064,5.111C-11.691,5.382 -11.195,5.417 -10.787,5.203L-7.457,3.452L-4.125,5.203C-3.947,5.296 -3.754,5.343 -3.561,5.343C-3.309,5.343 -3.059,5.265 -2.848,5.111C-2.475,4.839 -2.287,4.38 -2.365,3.925L-3.002,0.216L-0.307,-2.411C0.023,-2.733 0.143,-3.216 0,-3.654" style="fill:rgb(255,213,0);fill-rule:nonzero;"/>
        </g>
        <g transform="matrix(1,0,0,1,393.837,559.007)">
            <path d="M0,-3.654C-0.143,-4.092 -0.521,-4.413 -0.979,-4.479L-4.703,-5.02L-6.369,-8.395C-6.572,-8.809 -6.994,-9.071 -7.455,-9.071C-7.918,-9.071 -8.338,-8.809 -8.543,-8.395L-10.209,-5.02L-13.934,-4.479C-14.391,-4.413 -14.77,-4.092 -14.912,-3.654C-15.055,-3.216 -14.936,-2.733 -14.605,-2.411L-11.91,0.216L-12.547,3.925C-12.625,4.38 -12.438,4.839 -12.064,5.111C-11.691,5.382 -11.195,5.417 -10.787,5.203L-7.455,3.452L-4.125,5.203C-3.947,5.296 -3.754,5.343 -3.561,5.343C-3.309,5.343 -3.059,5.265 -2.848,5.111C-2.475,4.839 -2.287,4.38 -2.365,3.925L-3.002,0.216L-0.307,-2.411C0.023,-2.733 0.143,-3.216 0,-3.654" style="fill:rgb(255,213,0);fill-rule:nonzero;"/>
        </g>
        <g transform="matrix(1,0,0,1,280.953,536.358)">
            <path d="M0,-15.777C-6.09,-19.549 -16.709,-24.631 -30.286,-25.525C-32.62,-16.191 -24.286,-7.525 -24.286,-7.525C-27.62,-0.192 -31.529,9.08 -28.197,9.414C-24.863,9.748 -9.197,4.082 -2.529,-5.252C4.137,-14.586 0,-15.777 0,-15.777" style="fill:rgb(0,187,255);fill-rule:nonzero;"/>
        </g>
        <g transform="matrix(1,0,0,1,310.69,536.358)">
            <path d="M0,-15.777C6.09,-19.549 16.709,-24.631 30.286,-25.525C32.62,-16.191 24.286,-7.525 24.286,-7.525C27.62,-0.192 31.529,9.08 28.197,9.414C24.863,9.748 9.197,4.082 2.529,-5.252C-4.137,-14.586 0,-15.777 0,-15.777" style="fill:rgb(0,187,255);fill-rule:nonzero;"/>
        </g>
        <g transform="matrix(1,0,0,1,413.326,315.455)">
            <path d="M0,-23.94C6.748,-24.429 12.457,-6.352 7.785,-2.931C3.115,0.489 0,-23.94 0,-23.94" style="fill:rgb(255,254,242);fill-rule:nonzero;"/>
        </g>
        <g transform="matrix(1,0,0,1,341.853,609.003)">
            <path d="M-47.297,-14.189C-49.658,-11.407 -55.115,-5.779 -65.799,1.631C-65.799,1.631 -95.69,-20.817 -93.69,-55.817L0,-54.186C2,-19.186 -25.799,1.631 -25.799,1.631C-36.38,-5.707 -41.835,-11.298 -44.232,-14.108L-43.429,-13.686C-43.3,-13.619 -43.162,-13.585 -43.021,-13.585C-42.839,-13.585 -42.658,-13.642 -42.506,-13.753C-42.234,-13.95 -42.099,-14.283 -42.156,-14.612L-42.617,-17.297L-40.666,-19.2C-40.425,-19.433 -40.339,-19.783 -40.443,-20.1C-40.547,-20.417 -40.82,-20.649 -41.152,-20.697L-43.849,-21.089L-45.054,-23.533C-45.203,-23.832 -45.507,-24.022 -45.841,-24.022C-46.175,-24.022 -46.482,-23.832 -46.629,-23.533L-47.836,-21.089L-50.533,-20.697C-50.863,-20.649 -51.138,-20.417 -51.24,-20.1C-51.343,-19.783 -51.257,-19.433 -51.019,-19.2L-49.068,-17.297L-49.527,-14.612C-49.584,-14.283 -49.449,-13.95 -49.179,-13.753C-48.91,-13.557 -48.55,-13.532 -48.254,-13.686L-47.297,-14.189Z" style="fill:rgb(123,134,167);"/>
        </g>
        <g transform="matrix(1,0,0,1,330.863,625.5)">
            <path d="M0,-6.5C5.244,-11.052 15,-12.75 15.25,-9C15.5,-5.25 8.25,-4.5 8.25,-4.5C11.5,-0.25 4.25,-0.5 4.25,-0.5C4.75,5 -0.75,6.25 -2.25,1.75C-3.75,-2.75 0,-6.5 0,-6.5" style="fill:rgb(216,239,241);fill-rule:nonzero;"/>
        </g>
        <g transform="matrix(1,0,0,1,332.861,587.09)">
            <path d="M0,-1.928C0.521,-14.264 3.002,-37.589 3.002,-37.589C3.002,-37.589 -29.998,-47.339 -32.498,-28.589C-33.115,-17.308 -33.064,-7.755 -32.641,-0.916C-32.379,3.308 -31.975,6.502 -31.498,8.411C-30.248,13.411 -23.998,34.161 -24.248,37.661C-24.498,41.161 -24.748,43.911 -20.248,44.661C-15.748,45.411 -8.248,44.911 -2.498,37.911C3.252,30.911 0.752,11.161 0.002,4.411C-0.137,3.152 -0.121,0.9 0,-1.928" style="fill:rgb(64,64,64);fill-rule:nonzero;"/>
        </g>
        <g transform="matrix(1,0,0,1,261.156,625.5)">
            <path d="M0,-6.5C-5.242,-11.052 -15,-12.75 -15.25,-9C-15.5,-5.25 -8.25,-4.5 -8.25,-4.5C-11.5,-0.25 -4.25,-0.5 -4.25,-0.5C-4.75,5 0.75,6.25 2.25,1.75C3.75,-2.75 0,-6.5 0,-6.5" style="fill:rgb(216,239,241);fill-rule:nonzero;"/>
        </g>
        <g transform="matrix(1,0,0,1,291.656,613.75)">
            <path d="M0,-55.25C-2.5,-74 -35.5,-64.25 -35.5,-64.25C-35.5,-64.25 -33.193,-42.572 -32.561,-29.962C-32.387,-26.493 -32.338,-23.706 -32.5,-22.25C-33.25,-15.5 -35.75,4.25 -30,11.25C-24.25,18.25 -16.75,18.75 -12.25,18C-7.75,17.25 -8,14.5 -8.25,11C-8.5,7.5 -2.25,-13.25 -1,-18.25C-0.512,-20.2 -0.104,-23.496 0.158,-27.855C0.566,-34.675 0.611,-44.117 0,-55.25" style="fill:rgb(64,64,64);fill-rule:nonzero;"/>
        </g>
        <g transform="matrix(1,0,0,1,255.081,535.914)">
            <path d="M0,31.416C9.23,48.583 25.91,38.057 25.91,38.057C37.086,48.583 54.252,41.781 57.814,37.57C68.664,43.725 80.973,37.085 80.486,30.931C80,24.776 41.619,-17.167 41.619,-17.167L0,31.416Z" style="fill:rgb(205,255,255);fill-rule:nonzero;"/>
        </g>
        <g transform="matrix(1,0,0,1,318.898,530.679)">
            <path d="M0,25.071C-1.75,28.321 -7,32.071 -7,32.071L-11,27.821C-11,27.821 -17.75,37.321 -23,40.321C-28.25,37.321 -35,27.821 -35,27.821L-39,32.071C-39,32.071 -44.25,28.321 -46,25.071L-24.897,-15.25L0,25.071Z" style="fill:rgb(0,187,255);fill-rule:nonzero;stroke:rgb(255,213,0);stroke-width:6.04px;"/>
        </g>
        <g transform="matrix(1,0,0,1,346.834,545.593)">
            <path d="M0,7.386C10.662,10.335 25.668,11.001 36.715,1.658C38.67,3.347 39.787,4.402 39.787,4.402C28.598,16.834 11.688,16.337 0,13.105C-11.688,9.872 -21.385,-6.292 -21.385,-6.292L-19.695,-9.448C-16.426,-4.755 -8.773,4.959 0,7.386" style="fill:rgb(0,211,255);fill-rule:nonzero;"/>
        </g>
        <g transform="matrix(0.914919,-0.403637,-0.403637,-0.914919,353.654,555.129)">
            <path d="M-5.372,4.72C-12.419,10.481 -15.5,22.458 -16.596,28.071L-5.372,41.684C15.244,30.851 26.074,4.532 30.532,-4.859C16.653,-8.948 3.193,-2.282 -5.372,4.72" style="fill:rgb(255,254,243);fill-rule:nonzero;"/>
        </g>
        <g transform="matrix(1,0,0,1,246.123,545.593)">
            <path d="M0,7.386C-10.662,10.335 -25.668,11.001 -36.715,1.658C-38.67,3.347 -39.787,4.402 -39.787,4.402C-28.598,16.834 -11.688,16.337 0,13.105C11.688,9.872 21.385,-6.292 21.385,-6.292L19.697,-9.448C16.426,-4.755 8.775,4.959 0,7.386" style="fill:rgb(0,211,255);fill-rule:nonzero;"/>
        </g>
        <g transform="matrix(0.941909,0.335868,0.335868,-0.941909,240.614,554.969)">
            <path d="M4.521,3.725C11.971,8.959 15.915,20.678 17.42,26.197L4.521,39.269C-12.957,31.345 -26.853,5.831 -31.985,-3.211C-18.442,-8.301 -4.531,-2.633 4.521,3.725" style="fill:rgb(255,254,243);fill-rule:nonzero;"/>
        </g>
        <g transform="matrix(1,0,0,1,270.246,515.214)">
            <path d="M0,-42.556C-10.197,-20.424 -17.771,8.629 -17.771,8.629C13.334,0.365 59.787,17.862 67.994,6.672C62.939,-21.7 50.621,-42.514 50.621,-42.514L42.664,-60.418L7.957,-59.216L0,-42.556Z" style="fill:rgb(255,254,243);fill-rule:nonzero;"/>
        </g>
        <g transform="matrix(-0.19684,0.980436,0.980436,0.19684,298.682,456.553)">
            <path d="M16.085,-14.698C9.484,-0.933 10.786,12.925 10.786,12.925L16.085,12.142C16.557,0.496 20.76,-11.795 20.76,-11.795L16.085,-14.698Z" style="fill:rgb(0,211,255);fill-rule:nonzero;"/>
        </g>
        <g transform="matrix(-0.910356,0.413825,0.413825,0.910356,272.94,511.272)">
            <path d="M-5.1,-37.916C9.858,-33.934 17.03,-19.313 10.77,-9.367C4.51,0.579 -5.1,-0.313 -5.1,-0.313L-16.194,-27.614L-5.1,-37.916Z" style="fill:rgb(255,254,243);fill-rule:nonzero;"/>
        </g>
        <g transform="matrix(-0.910356,-0.413825,-0.413825,0.910356,317.682,511.272)">
            <path d="M5.1,-37.916C-9.858,-33.934 -17.03,-19.313 -10.77,-9.367C-4.51,0.579 5.1,-0.313 5.1,-0.313L16.194,-27.614L5.1,-37.916Z" style="fill:rgb(255,254,243);fill-rule:nonzero;"/>
        </g>
        <g transform="matrix(-0.861774,0.507293,0.507293,0.861774,276.674,487.801)">
            <path d="M-14.25,-26.192C-1.038,-30.219 12.593,-29.025 15.077,-25.293C3.549,-3.213 -14.25,8.707 -14.25,8.707L-16.961,4.027C-19.987,-7.885 -14.25,-26.192 -14.25,-26.192" style="fill:rgb(205,255,255);fill-rule:nonzero;"/>
        </g>
        <g transform="matrix(-0.887141,-0.46164,-0.46164,0.887141,317.019,488.695)">
            <path d="M16.487,-26.553C3.084,-29.884 -12.29,-28.353 -14.576,-24.497C-1.911,-3.049 16.487,7.926 16.487,7.926L19.236,4.159C21.636,-7.895 16.487,-26.553 16.487,-26.553" style="fill:rgb(205,255,255);fill-rule:nonzero;"/>
        </g>
        <g transform="matrix(0.552105,0.833774,0.833774,-0.552105,291.156,442.846)">
            <path d="M2.23,-17.677L8.195,-17.677C21.077,-14.615 26.127,3.275 23.942,7.455C22.821,9.596 21.215,11.894 21.215,11.894L2.23,-17.677Z" style="fill:rgb(205,255,255);fill-rule:nonzero;"/>
        </g>
        <g transform="matrix(1,0,0,1,361.08,460.194)">
            <path d="M0,-148.861L-64.447,-139.397L-128.896,-148.861C-165.564,-90.194 -134.23,-40.194 -134.23,-40.194C-142.383,-22.635 -114.549,-0.948 -76.811,-0.657C-66.152,0 -56.373,-0.102 -47.988,-0.771C-12.361,-2.525 13.189,-23.277 5.334,-40.194C5.334,-40.194 36.668,-90.194 0,-148.861" style="fill:rgb(255,254,243);fill-rule:nonzero;"/>
        </g>
        <g transform="matrix(1,0,0,1,295.296,413.683)">
            <path d="M0,4.945C-2.959,4.138 -3.232,0.19 -0.76,-0.191C1.713,-0.571 1.713,0.95 1.332,1.902C0.951,2.853 2.092,5.516 0,4.945" style="fill:rgb(158,128,155);fill-rule:nonzero;"/>
        </g>
        <g transform="matrix(1,0,0,1,261.789,572.687)">
            <path d="M0,-53.527C-24.867,-34.38 -28.1,-0.063 -28.1,-0.063C-28.1,-0.063 -13.479,0.249 1.359,-6.686C24.236,-17.38 26.607,-39.601 27.105,-40.596C27.604,-41.591 29.84,-53.776 29.84,-53.776L0,-53.527Z" style="fill:rgb(255,254,243);fill-rule:nonzero;"/>
        </g>
        <g transform="matrix(1,0,0,1,331.914,572.623)">
            <path d="M0,-53.464C24.867,-34.317 28.1,0 28.1,0C28.1,0 12.682,-1.988 -1.492,-10.195C-15.666,-18.402 -28.326,-35.224 -28.824,-36.219C-29.322,-37.214 -37.214,-52.3 -37.214,-52.3L0,-53.464Z" style="fill:rgb(255,254,243);fill-rule:nonzero;"/>
        </g>
        <g transform="matrix(-0.781479,-0.623932,-0.623932,0.781479,215.393,550.496)">
            <path d="M-28.104,-95.643C-53.554,-68.549 -66.003,-29.871 -31.165,11.705L-28.104,5.876C-48.383,-26.539 -54.934,-58.256 -24.169,-91.607L-28.104,-95.643Z" style="fill:rgb(0,211,255);fill-rule:nonzero;"/>
        </g>
        <g transform="matrix(-0.589805,0.807546,0.807546,0.589805,368.597,535.006)">
            <path d="M32.466,-68.95C51.073,-48.893 55.907,-1.14 36.313,17.433L32.466,12.16C53.362,-14.764 38.037,-57.183 26.512,-71.759L32.466,-68.95Z" style="fill:rgb(0,211,255);fill-rule:nonzero;"/>
        </g>
        <g transform="matrix(1,0,0,1,298.953,514.203)">
            <path d="M0,7.712C-0.236,7.316 -0.23,6.82 0.02,6.432L2.061,3.269L0.609,-0.205C0.432,-0.632 0.51,-1.121 0.814,-1.469C1.117,-1.817 1.592,-1.962 2.037,-1.845L5.676,-0.884L8.531,-3.337C8.881,-3.638 9.371,-3.713 9.795,-3.532C10.221,-3.352 10.506,-2.946 10.531,-2.484L10.742,1.274L13.957,3.23C14.352,3.47 14.574,3.912 14.533,4.372C14.494,4.831 14.193,5.229 13.764,5.396L10.256,6.758L9.389,10.419C9.342,10.614 9.25,10.791 9.123,10.937C8.957,11.126 8.734,11.265 8.479,11.321C8.029,11.425 7.561,11.265 7.268,10.907L4.891,7.991L1.139,8.298C0.68,8.334 0.236,8.107 0,7.712" style="fill:rgb(255,213,0);fill-rule:nonzero;"/>
        </g>
        <g transform="matrix(1,0,0,1,358.368,491.981)">
            <clipPath id="_clip7">
                <path d="M-8.653,16.733C-18.102,22.95 -8.408,30.906 -8.408,30.906C-2.439,31.155 8.255,30.906 8.255,30.906L15.714,12.505C7.261,-4.902 -1.693,-8.88 -1.693,-8.88C-13.378,-3.161 -12.384,11.512 -8.653,16.733Z" clip-rule="nonzero"/>
            </clipPath>
            <g clip-path="url(#_clip7)">
                <path d="M0,3.136C-0.123,2.693 0.018,2.216 0.361,1.908L3.174,-0.593L2.705,-4.329C2.648,-4.788 2.855,-5.238 3.24,-5.492C3.625,-5.747 4.121,-5.76 4.52,-5.527L7.77,-3.628L11.176,-5.227C11.594,-5.424 12.086,-5.365 12.447,-5.078C12.807,-4.791 12.975,-4.323 12.875,-3.871L12.074,-0.194L14.646,2.551C14.963,2.888 15.061,3.374 14.896,3.806C14.736,4.238 14.342,4.54 13.883,4.586L10.137,4.96L8.322,8.256C8.225,8.432 8.09,8.577 7.928,8.684C7.717,8.822 7.467,8.896 7.205,8.882C6.744,8.863 6.336,8.582 6.148,8.159L4.637,4.714L0.941,4.005C0.488,3.917 0.123,3.58 0,3.136" style="fill:rgb(255,213,0);fill-rule:nonzero;"/>
            </g>
        </g>
        <g transform="matrix(1,0,0,1,232.22,491.907)">
            <clipPath id="_clip8">
                <path d="M-15.67,12.579L-8.209,30.981C-8.209,30.981 2.484,31.23 8.451,30.981C8.451,30.981 18.149,23.024 8.699,16.807C12.429,11.586 13.424,-3.086 1.736,-8.806C1.736,-8.806 -7.217,-4.828 -15.67,12.579Z" clip-rule="nonzero"/>
            </clipPath>
            <g clip-path="url(#_clip8)">
                <path d="M0,3.473C0.137,3.032 0.012,2.553 -0.324,2.235L-3.063,-0.348L-2.484,-4.068C-2.414,-4.525 -2.607,-4.982 -2.986,-5.247C-3.363,-5.512 -3.859,-5.539 -4.264,-5.318L-7.566,-3.515L-10.926,-5.215C-11.338,-5.423 -11.832,-5.379 -12.199,-5.101C-12.57,-4.826 -12.75,-4.363 -12.664,-3.908L-11.971,-0.209L-14.623,2.459C-14.949,2.787 -15.061,3.27 -14.91,3.707C-14.762,4.143 -14.375,4.457 -13.918,4.516L-10.186,5L-8.467,8.348C-8.375,8.526 -8.244,8.676 -8.086,8.786C-7.881,8.931 -7.631,9.012 -7.369,9.006C-6.908,8.998 -6.49,8.731 -6.291,8.315L-4.68,4.914L-0.965,4.315C-0.51,4.24 -0.135,3.912 0,3.473" style="fill:rgb(255,213,0);fill-rule:nonzero;"/>
            </g>
        </g>
        <g transform="matrix(1,0,0,1,273.656,609.276)">
            <path d="M0,-2.526C-2.854,-0.385 -5.217,2.323 -6.721,4.255C-11.945,3.408 -15.855,4.46 -17.742,5.172C-18.283,3.285 -18.344,2.12 -18.633,0.225C-18.633,0.225 -15.41,-2.192 -10.038,-1.655C-8.534,-3.588 -3.323,-6.892 0.034,-7.698C0.034,-7.698 6.95,-6.805 10.644,-2.594C14.302,-4.338 15.881,-4.072 17.896,-3.132C17.896,-3.132 17.986,-2.716 16.582,0.8C14.098,0.866 10.73,2.155 7.795,3.554C4.102,-0.657 0,-2.526 0,-2.526" style="fill:rgb(255,213,0);fill-rule:nonzero;"/>
        </g>
        <g transform="matrix(1,0,0,1,266.518,608.441)">
            <path d="M0,23.787C-4.613,20.214 -8.498,13.335 -10.604,6.008C-7.868,4.418 -6.66,3.881 -1.69,3.612C0.593,1.599 3.01,-0.282 7.139,-1.691C7.139,-1.691 12.88,-1.001 16.573,3.21C19.509,1.81 21.006,1.06 23.721,1.636C22.719,4.147 21.139,7.143 18.639,10.059L16.889,16.309C16.889,16.309 17.348,17.794 17.736,19.533C17.992,20.675 18.209,21.919 18.254,22.935C12.6,25.478 4.35,24.696 0,23.787" style="fill:rgb(255,254,243);fill-rule:nonzero;"/>
        </g>
        <g transform="matrix(1,0,0,1,284.406,634.485)">
            <path d="M0,-1.235C-0.088,-1.147 -0.195,-1.055 -0.314,-0.962C-1.9,0.277 -6.293,1.874 -13.5,0.015C-15.012,-0.376 -16.482,-1.169 -17.889,-2.257C-13.539,-1.348 -5.289,-0.566 0.365,-3.109C0.4,-2.249 0.314,-1.548 0,-1.235" style="fill:rgb(255,213,0);fill-rule:nonzero;"/>
        </g>
        <g transform="matrix(1,0,0,1,268.603,612.83)">
            <path d="M0,-2.71C0.107,-3.035 0.387,-3.273 0.727,-3.322L3.49,-3.724L4.725,-6.228C4.877,-6.534 5.189,-6.729 5.531,-6.729C5.875,-6.729 6.187,-6.534 6.338,-6.228L7.574,-3.724L10.336,-3.322C10.676,-3.273 10.957,-3.035 11.063,-2.71C11.168,-2.385 11.08,-2.027 10.834,-1.788L8.836,0.16L9.309,2.912C9.365,3.249 9.227,3.59 8.949,3.791C8.674,3.992 8.307,4.019 8.002,3.86L5.531,2.561L3.061,3.86C2.93,3.929 2.785,3.964 2.643,3.964C2.455,3.964 2.27,3.905 2.113,3.791C1.836,3.59 1.697,3.249 1.756,2.912L2.229,0.16L0.229,-1.788C-0.018,-2.027 -0.105,-2.385 0,-2.71" style="fill:rgb(255,213,0);fill-rule:nonzero;"/>
        </g>
        <g transform="matrix(1,0,0,1,318.312,609.276)">
            <path d="M0,-2.526C2.854,-0.385 5.217,2.323 6.721,4.255C11.945,3.408 15.855,4.46 17.742,5.172C18.283,3.285 18.344,2.12 18.633,0.225C18.633,0.225 15.41,-2.192 10.038,-1.655C8.534,-3.588 3.323,-6.892 -0.034,-7.698C-0.034,-7.698 -6.95,-6.805 -10.644,-2.594C-14.302,-4.338 -15.881,-4.072 -17.896,-3.132C-17.896,-3.132 -17.986,-2.716 -16.582,0.8C-14.098,0.866 -10.73,2.155 -7.795,3.554C-4.102,-0.657 0,-2.526 0,-2.526" style="fill:rgb(255,213,0);fill-rule:nonzero;"/>
        </g>
        <g transform="matrix(1,0,0,1,325.451,608.441)">
            <path d="M0,23.787C4.613,20.214 8.498,13.335 10.604,6.008C7.868,4.418 6.66,3.881 1.69,3.612C-0.593,1.599 -3.01,-0.282 -7.139,-1.691C-7.139,-1.691 -12.88,-1.001 -16.573,3.21C-19.509,1.81 -21.006,1.06 -23.721,1.636C-22.719,4.147 -21.139,7.143 -18.639,10.059L-16.889,16.309C-16.889,16.309 -17.348,17.794 -17.736,19.533C-17.992,20.675 -18.209,21.919 -18.254,22.935C-12.6,25.478 -4.35,24.696 0,23.787" style="fill:rgb(255,254,243);fill-rule:nonzero;"/>
        </g>
        <g transform="matrix(1,0,0,1,307.562,634.485)">
            <path d="M0,-1.235C0.088,-1.147 0.195,-1.055 0.314,-0.962C1.9,0.277 6.293,1.874 13.5,0.015C15.012,-0.376 16.482,-1.169 17.889,-2.257C13.539,-1.348 5.289,-0.566 -0.365,-3.109C-0.4,-2.249 -0.314,-1.548 0,-1.235" style="fill:rgb(255,213,0);fill-rule:nonzero;"/>
        </g>
        <g transform="matrix(1,0,0,1,323.366,612.83)">
            <path d="M0,-2.71C-0.107,-3.035 -0.387,-3.273 -0.727,-3.322L-3.49,-3.724L-4.725,-6.228C-4.877,-6.534 -5.189,-6.729 -5.531,-6.729C-5.875,-6.729 -6.187,-6.534 -6.338,-6.228L-7.574,-3.724L-10.336,-3.322C-10.676,-3.273 -10.957,-3.035 -11.063,-2.71C-11.168,-2.385 -11.08,-2.027 -10.834,-1.788L-8.836,0.16L-9.309,2.912C-9.365,3.249 -9.227,3.59 -8.949,3.791C-8.674,3.992 -8.307,4.019 -8.002,3.86L-5.531,2.561L-3.061,3.86C-2.93,3.929 -2.785,3.964 -2.643,3.964C-2.455,3.964 -2.27,3.905 -2.113,3.791C-1.836,3.59 -1.697,3.249 -1.756,2.912L-2.229,0.16L-0.229,-1.788C0.018,-2.027 0.105,-2.385 0,-2.71" style="fill:rgb(255,213,0);fill-rule:nonzero;"/>
        </g>
        <g transform="matrix(1,0,0,1,246.609,395.582)">
            <path d="M0,-7.121C-11.304,-2.618 -14.916,-9.025 -14.916,-9.025C-11.749,1.904 -3.896,1.751 -2.059,1.253C-0.22,0.755 0,-7.121 0,-7.121" style="fill:rgb(24,0,86);fill-rule:nonzero;"/>
        </g>
        <g transform="matrix(1,0,0,1,253.612,432.77)">
            <path d="M0,-51.892C-12.332,-51.743 -26.738,0.13 -2.015,-9.651C13.968,-15.975 13.563,-17.58 13.479,-29.213C13.414,-38.087 10.81,-52.022 0,-51.892" style="fill:rgb(24,0,86);fill-rule:nonzero;"/>
        </g>
        <g transform="matrix(1,0,0,1,253.887,430.609)">
            <path d="M0,-45.258C-12.325,-44.803 -27.319,-0.62 -2.663,-0.019C12.651,0.354 13.288,-9.088 13.631,-20.716C13.96,-31.942 9.615,-45.612 0,-45.258" style="fill:rgb(0,231,255);fill-rule:nonzero;"/>
        </g>
        <g transform="matrix(1,0,0,1,260.955,409.994)">
            <path d="M0,-3.497C-0.137,-3.917 -0.499,-4.224 -0.937,-4.287L-4.502,-4.805L-6.097,-8.035C-6.293,-8.432 -6.696,-8.682 -7.138,-8.682C-7.579,-8.682 -7.982,-8.432 -8.177,-8.035L-9.771,-4.805L-13.336,-4.287C-13.773,-4.224 -14.137,-3.917 -14.272,-3.497C-14.409,-3.078 -14.297,-2.616 -13.979,-2.308L-11.399,0.207L-12.009,3.757C-12.084,4.192 -11.904,4.632 -11.548,4.892C-11.192,5.151 -10.718,5.185 -10.325,4.981L-7.138,3.304L-3.948,4.981C-3.778,5.069 -3.593,5.114 -3.408,5.114C-3.169,5.114 -2.928,5.039 -2.726,4.892C-2.369,4.632 -2.191,4.192 -2.264,3.757L-2.874,0.207L-0.294,-2.308C0.022,-2.616 0.136,-3.078 0,-3.497" style="fill:rgb(255,241,25);fill-rule:nonzero;"/>
        </g>
        <g transform="matrix(1,0,0,1,345.48,395.582)">
            <path d="M0,-7.121C11.304,-2.618 14.916,-9.025 14.916,-9.025C11.749,1.904 3.896,1.751 2.059,1.253C0.22,0.755 0,-7.121 0,-7.121" style="fill:rgb(24,0,86);fill-rule:nonzero;"/>
        </g>
        <g transform="matrix(1,0,0,1,338.438,433.132)">
            <path d="M0,-52.514C14.196,-52.253 26.772,0.16 2.054,-10.012C-13.841,-16.554 -13.204,-14.838 -13.545,-26.467C-13.874,-37.693 -8.728,-52.674 0,-52.514" style="fill:rgb(24,0,86);fill-rule:nonzero;"/>
        </g>
        <g transform="matrix(1,0,0,1,338.203,430.521)">
            <path d="M0,-45.17C12.325,-44.715 28.367,-0.413 2.663,0.069C-12.528,0.354 -13.288,-9 -13.63,-20.628C-13.959,-31.854 -9.615,-45.524 0,-45.17" style="fill:rgb(0,231,255);fill-rule:nonzero;"/>
        </g>
        <g transform="matrix(1,0,0,1,331.136,409.994)">
            <path d="M0,-3.497C0.136,-3.917 0.499,-4.224 0.937,-4.287L4.501,-4.805L6.096,-8.035C6.292,-8.432 6.695,-8.682 7.137,-8.682C7.578,-8.682 7.981,-8.432 8.177,-8.035L9.771,-4.805L13.336,-4.287C13.773,-4.224 14.136,-3.917 14.272,-3.497C14.409,-3.078 14.297,-2.616 13.979,-2.308L11.399,0.207L12.009,3.757C12.083,4.192 11.903,4.632 11.547,4.892C11.191,5.151 10.717,5.185 10.324,4.981L7.137,3.304L3.948,4.981C3.777,5.069 3.593,5.114 3.407,5.114C3.168,5.114 2.927,5.039 2.726,4.892C2.368,4.632 2.19,4.192 2.264,3.757L2.873,0.207L0.293,-2.308C-0.022,-2.616 -0.137,-3.078 0,-3.497" style="fill:rgb(255,241,25);fill-rule:nonzero;"/>
        </g>
        <g transform="matrix(1,0,0,1,275.711,352.745)">
            <path d="M0,1.723C-2.154,-11.203 -22.349,-4.071 -20.683,5.17C-19.338,12.623 1.293,12.926 0,1.723" style="fill:rgb(220,218,214);fill-rule:nonzero;"/>
        </g>
        <g transform="matrix(1,0,0,1,313.401,352.745)">
            <path d="M0,1.723C2.154,-11.203 22.349,-4.071 20.683,5.17C19.338,12.623 -1.293,12.926 0,1.723" style="fill:rgb(220,218,214);fill-rule:nonzero;"/>
        </g>
        <g transform="matrix(1,0,0,1,409.008,265.765)">
            <path d="M0,65.639C-3.409,84.216 -30.437,80.821 -34.379,62.642C-38.486,43.703 -25.745,39.698 -11.583,29.487C6.445,16.489 15.13,4.342 20.79,-7.117C26.451,-18.577 33.815,16.626 20.817,26.574C40.603,29.707 29.927,51.844 21.985,50.47C35.697,63.248 9.976,70.365 0,65.639" style="fill:rgb(255,254,242);fill-rule:nonzero;"/>
        </g>
        <g transform="matrix(1,0,0,1,409.008,313.067)">
            <path d="M0,18.337C0.771,-3.456 -21.737,1.023 -22.644,8.223C-23.552,15.423 -15.848,21.793 -12.174,17.924C-7.558,13.06 -12.477,10.999 -12.477,10.999" style="fill:rgb(255,254,242);fill-rule:nonzero;"/>
        </g>
        <g transform="matrix(1,0,0,1,409.008,315.537)">
            <path d="M0,15.867C0,15.867 -0.027,15.625 -0.079,15.17C-0.139,14.72 -0.184,14.039 -0.338,13.216C-0.454,12.388 -0.679,11.395 -0.976,10.285C-1.313,9.188 -1.744,7.972 -2.416,6.784C-3.097,5.603 -4.008,4.456 -5.172,3.518C-6.335,2.578 -7.777,1.903 -9.361,1.543C-10.146,1.337 -10.983,1.281 -11.82,1.239C-12.663,1.255 -13.518,1.284 -14.366,1.433C-16.057,1.703 -17.757,2.31 -19.104,3.251C-19.779,3.709 -20.37,4.25 -20.744,4.83C-20.833,4.976 -20.939,5.117 -20.983,5.266C-21.047,5.411 -21.12,5.555 -21.136,5.699L-21.19,5.913L-21.194,5.927C-21.204,6.023 -21.187,5.809 -21.188,5.84L-21.197,5.975L-21.208,6.154L-21.254,6.869C-21.281,8.396 -20.912,10.069 -20.117,11.462C-19.339,12.855 -18.278,14.067 -17.077,14.837C-15.874,15.63 -14.566,15.853 -13.559,15.418C-13.037,15.192 -12.66,14.851 -12.163,14.331C-11.713,13.861 -11.392,13.467 -11.119,12.99C-10.564,12.076 -10.506,11.145 -10.802,10.426C-11.085,9.702 -11.582,9.227 -11.915,8.937C-12.26,8.647 -12.477,8.529 -12.477,8.529C-12.477,8.529 -12.24,8.593 -11.825,8.802C-11.43,9.023 -10.776,9.351 -10.272,10.149C-10.008,10.536 -9.834,11.052 -9.769,11.637C-9.732,12.218 -9.834,12.858 -10.074,13.465C-10.286,14.064 -10.675,14.721 -11.062,15.273C-11.399,15.769 -11.982,16.491 -12.749,16.938C-12.95,17.044 -13.153,17.151 -13.358,17.26C-13.569,17.354 -13.802,17.389 -14.029,17.453C-14.493,17.604 -14.961,17.576 -15.446,17.586C-15.921,17.565 -16.389,17.453 -16.852,17.336C-17.283,17.163 -17.77,17.041 -18.17,16.792C-19.863,15.913 -21.331,14.527 -22.398,12.795C-23.464,11.072 -24.195,9.004 -24.146,6.712L-24.113,5.996L-24.105,5.817L-24.102,5.727L-24.1,5.682C-24.102,5.698 -24.08,5.47 -24.086,5.552L-24.081,5.521L-23.981,5.032C-23.845,4.381 -23.569,3.784 -23.242,3.263C-22.583,2.21 -21.714,1.418 -20.799,0.778C-18.936,-0.462 -16.866,-1.128 -14.797,-1.428C-12.724,-1.737 -10.623,-1.563 -8.692,-1.006C-6.748,-0.48 -5.018,0.566 -3.698,1.843C-2.355,3.11 -1.462,4.615 -0.871,6.04C-0.266,7.47 -0.021,8.854 0.145,10.059C0.284,11.27 0.299,12.325 0.255,13.192C0.261,14.058 0.119,14.713 0.083,15.171C0.029,15.625 0,15.867 0,15.867" style="fill:rgb(0,249,255);fill-rule:nonzero;"/>
        </g>
        <g transform="matrix(1,0,0,1,363.802,421.856)">
            <path d="M0,-111.005C0,-111.005 6.486,-70.739 3.06,-27.581C3.177,-60.857 -1.793,-99.059 -14.44,-125.445L-5.464,-146.91C61.273,-79.393 39.027,27.543 39.027,27.543C39.027,27.543 29.117,34.525 14.652,35.905C20.046,15.123 31.5,-48.69 0,-111.005" style="fill:url(#_Linear9);fill-rule:nonzero;"/>
        </g>
        <g transform="matrix(1,0,0,1,284.646,519.892)">
            <path d="M0,-4.313C-6.621,-4.615 -11.538,-1.118 -9.23,-0.408C-6.923,0.302 3.905,-4.135 0,-4.313" style="fill:rgb(147,147,148);fill-rule:nonzero;"/>
        </g>
        <g transform="matrix(1,0,0,1,294.863,512.121)">
            <path d="M0,-21.635C-0.746,-2.487 -9.449,8.455 -9.449,8.455L-17.904,-1.243L-29.344,-1.492C-29.344,-1.492 -22.629,-14.672 -14.174,-22.381C-5.721,-30.09 0,-21.635 0,-21.635" style="fill:rgb(0,187,255);fill-rule:nonzero;"/>
        </g>
        <g transform="matrix(1,0,0,1,297.35,512.121)">
            <path d="M0,-21.635C0.746,-2.487 9.449,8.455 9.449,8.455L17.904,-1.243L29.342,-1.492C29.342,-1.492 22.629,-14.672 14.174,-22.381C5.719,-30.09 0,-21.635 0,-21.635" style="fill:rgb(0,187,255);fill-rule:nonzero;"/>
        </g>
        <g transform="matrix(1,0,0,1,293.748,492.604)">
            <path d="M0,-9.002C-8,-20.335 -21.666,-23.334 -30.334,-21.668C-37,-11.335 -30,-4.335 -30,-4.335C-33.334,2.998 -30.666,13.664 -27.334,13.998C-24,14.332 -8.334,8.666 -1.666,-0.668C5,-10.002 0,-9.002 0,-9.002" style="fill:rgb(0,211,255);fill-rule:nonzero;"/>
        </g>
        <g transform="matrix(1,0,0,1,299.002,492.604)">
            <path d="M0,-9.002C8,-20.335 21.668,-23.334 30.334,-21.668C37,-11.335 30,-4.335 30,-4.335C33.334,2.998 30.668,13.664 27.334,13.998C24,14.332 8.334,8.666 1.668,-0.668C-5,-10.002 0,-9.002 0,-9.002" style="fill:rgb(0,211,255);fill-rule:nonzero;"/>
        </g>
        <g transform="matrix(1,0,0,1,290.449,495.119)">
            <path d="M0,-7.778C-10.803,-12.964 -16.973,-11.771 -15.988,-5.617C-14.26,5.186 -5.186,-1.297 -1.297,-3.457C2.594,-5.617 0,-7.778 0,-7.778" style="fill:rgb(0,187,255);fill-rule:nonzero;"/>
        </g>
        <g transform="matrix(1,0,0,1,302.682,495.119)">
            <path d="M0,-7.778C10.803,-12.964 16.973,-11.771 15.988,-5.617C14.26,5.186 5.186,-1.297 1.297,-3.457C-2.594,-5.617 0,-7.778 0,-7.778" style="fill:rgb(0,187,255);fill-rule:nonzero;"/>
        </g>
        <g transform="matrix(1,0,0,1,308.971,490.316)">
            <path d="M0,-6.491C-0.254,-7.269 -0.928,-7.838 -1.738,-7.956L-8.354,-8.917L-11.313,-14.911C-11.676,-15.646 -12.424,-16.111 -13.242,-16.111C-14.063,-16.111 -14.811,-15.646 -15.174,-14.911L-18.133,-8.917L-24.746,-7.956C-25.559,-7.838 -26.232,-7.269 -26.484,-6.491C-26.738,-5.712 -26.527,-4.855 -25.939,-4.283L-21.154,0.383L-22.283,6.97C-22.422,7.778 -22.09,8.593 -21.428,9.075C-20.766,9.558 -19.885,9.62 -19.158,9.239L-13.242,6.13L-7.326,9.239C-7.01,9.405 -6.668,9.488 -6.324,9.488C-5.877,9.488 -5.434,9.349 -5.059,9.075C-4.395,8.593 -4.064,7.778 -4.201,6.97L-5.332,0.383L-0.545,-4.282C0.041,-4.855 0.254,-5.712 0,-6.491" style="fill:rgb(255,213,0);fill-rule:nonzero;"/>
        </g>
        <g transform="matrix(1,0,0,1,255.241,522.223)">
            <path d="M0,-4.553C-4.82,-3.348 -5.355,-0.134 -5.355,-0.134L0.804,0L0,-4.553Z" style="fill:rgb(255,254,243);fill-rule:nonzero;"/>
        </g>
        <g transform="matrix(1,0,0,1,336.25,522.223)">
            <path d="M0,-4.553C4.82,-3.348 5.355,-0.134 5.355,-0.134L-0.804,0L0,-4.553Z" style="fill:rgb(255,254,243);fill-rule:nonzero;"/>
        </g>
        <g transform="matrix(1,0,0,1,360.076,326.157)">
            <path d="M0,-21.229C-6.862,-30.43 -31.671,-39.192 -54.739,-40.579C-57.212,-40.728 -59.771,-40.816 -62.374,-40.847C-64.977,-40.816 -67.536,-40.728 -70.009,-40.579C-93.077,-39.192 -117.886,-30.43 -124.748,-21.229C-131.61,-12.028 -135.021,15.607 -135.021,15.607C-115.531,16.865 -107.355,1.84 -107.355,1.84C-105.282,12.822 -98.812,19.618 -98.812,19.618C-86.479,10.16 -83.706,-7.34 -83.706,-7.34C-76.302,8.836 -61.729,15.5 -61.707,15.51C-61.686,15.5 -48.446,8.836 -41.042,-7.34C-41.042,-7.34 -38.27,10.16 -25.937,19.618C-25.937,19.618 -19.466,12.822 -17.393,1.84C-17.393,1.84 -9.217,16.865 10.272,15.607C10.272,15.607 6.862,-12.028 0,-21.229" style="fill:rgb(220,218,214);fill-rule:nonzero;"/>
        </g>
        <g transform="matrix(0.999289,0.0377101,0.0377101,-0.999289,355.672,454.895)">
            <path d="M2.692,-0.646C7.408,11.423 9.794,34.736 8.895,60.999C10.692,104.256 2.692,144.249 2.692,144.249C36.52,83.166 27.48,18.966 22.874,-2.004C16.858,-2.808 10.018,-2.672 2.692,-0.646" style="fill:url(#_Linear10);fill-rule:nonzero;"/>
        </g>
        <g>
            <clipPath id="_clip11">
                <path d="M290.067,285.578C266.999,286.965 242.19,295.727 235.328,304.928C228.466,314.129 225.056,341.764 225.056,341.764C244.545,343.022 252.721,327.997 252.721,327.997C254.794,338.979 261.265,345.775 261.265,345.775C273.597,336.317 276.37,318.817 276.37,318.817C283.775,334.993 298.347,341.657 298.369,341.667C298.391,341.657 311.629,334.993 319.034,318.817C319.034,318.817 321.807,336.317 334.139,345.775C334.139,345.775 340.61,338.979 342.684,327.997C342.684,327.997 350.86,343.022 370.348,341.764C370.348,341.764 366.938,314.129 360.077,304.928C353.214,295.727 328.405,286.965 305.337,285.578C302.864,285.43 300.305,285.341 297.702,285.31C295.099,285.341 292.54,285.43 290.067,285.578Z" clip-rule="nonzero"/>
            </clipPath>
            <g clip-path="url(#_clip11)">
                <g transform="matrix(1,0,0,1,230.408,308.266)">
                    <path d="M0,36.318C2.662,18.063 15.402,-0.381 15.402,-0.381C8.748,20.725 8.748,34.226 8.748,34.226C4.564,36.699 0,36.318 0,36.318" style="fill:rgb(199,206,198);fill-rule:nonzero;"/>
                </g>
                <g transform="matrix(1,0,0,1,363.75,309.748)">
                    <path d="M0,36.699C-2.662,18.444 -15.402,0 -15.402,0C-8.746,21.106 -8.557,31.564 -8.557,31.564C-3.611,35.368 0,36.699 0,36.699" style="fill:rgb(199,206,198);fill-rule:nonzero;"/>
                </g>
            </g>
        </g>
        <g transform="matrix(1,0,0,1,350.869,269)">
            <path d="M0,-31.5C-19.5,-64 -68.5,-51 -82,-27C-95.5,-3 -75,32.5 -34,13.5C-84.5,1.5 -55,-41 0,-31.5" style="fill:url(#_Linear12);fill-rule:nonzero;"/>
        </g>
        <g transform="matrix(1,0,0,1,230.69,421.856)">
            <path d="M0,-111.005C0,-111.005 -6.486,-70.739 -3.06,-27.581C-3.177,-60.857 1.793,-99.059 14.44,-125.445L5.464,-146.91C-61.273,-79.393 -39.027,27.543 -39.027,27.543C-39.027,27.543 -29.117,34.525 -14.652,35.905C-20.046,15.123 -31.5,-48.69 0,-111.005" style="fill:url(#_Linear13);fill-rule:nonzero;"/>
        </g>
        <g transform="matrix(0.999289,-0.0377101,-0.0377101,-0.999289,238.82,454.895)">
            <path d="M-2.692,-0.646C-7.408,11.423 -9.794,34.736 -8.895,60.999C-10.692,104.256 -2.692,144.249 -2.692,144.249C-36.52,83.166 -27.48,18.966 -22.874,-2.004C-16.858,-2.808 -10.018,-2.672 -2.692,-0.646" style="fill:url(#_Linear14);fill-rule:nonzero;"/>
        </g>
        <g transform="matrix(-1,0,0,1,295.999,448.858)">
            <path d="M-0.001,-16.858C6.72,-16.677 13.628,-15.795 18.5,-14.209C14.845,-4.175 7.382,0 -0.001,-0.346C-7.382,0 -14.845,-4.175 -18.501,-14.209C-13.629,-15.795 -6.72,-16.677 -0.001,-16.858" style="fill:rgb(255,162,199);fill-rule:nonzero;"/>
        </g>
    </g>
    <defs>
        <linearGradient id="_Linear1" x1="0" y1="0" x2="1" y2="0" gradientUnits="userSpaceOnUse" gradientTransform="matrix(1.28539e-14,-209.92,306.603,1.8774e-14,-143.555,14.115)"><stop offset="0" style="stop-color:rgb(138,243,254);stop-opacity:1"/><stop offset="0.2" style="stop-color:rgb(170,233,238);stop-opacity:1"/><stop offset="0.42" style="stop-color:rgb(204,223,222);stop-opacity:1"/><stop offset="1" style="stop-color:rgb(220,218,214);stop-opacity:1"/></linearGradient>
        <linearGradient id="_Linear2" x1="0" y1="0" x2="1" y2="0" gradientUnits="userSpaceOnUse" gradientTransform="matrix(7.80712e-15,-127.5,230.135,1.40917e-14,-70.5,4)"><stop offset="0" style="stop-color:rgb(199,206,198);stop-opacity:1"/><stop offset="1" style="stop-color:rgb(199,206,198);stop-opacity:1"/></linearGradient>
        <linearGradient id="_Linear3" x1="0" y1="0" x2="1" y2="0" gradientUnits="userSpaceOnUse" gradientTransform="matrix(1.28539e-14,-209.92,306.603,1.8774e-14,143.555,14.115)"><stop offset="0" style="stop-color:rgb(138,243,254);stop-opacity:1"/><stop offset="0.2" style="stop-color:rgb(170,233,238);stop-opacity:1"/><stop offset="0.42" style="stop-color:rgb(204,223,222);stop-opacity:1"/><stop offset="1" style="stop-color:rgb(220,218,214);stop-opacity:1"/></linearGradient>
        <linearGradient id="_Linear4" x1="0" y1="0" x2="1" y2="0" gradientUnits="userSpaceOnUse" gradientTransform="matrix(7.80712e-15,-127.5,230.135,1.40917e-14,72.1331,4)"><stop offset="0" style="stop-color:rgb(199,206,198);stop-opacity:1"/><stop offset="1" style="stop-color:rgb(199,206,198);stop-opacity:1"/></linearGradient>
        <linearGradient id="_Linear9" x1="0" y1="0" x2="1" y2="0" gradientUnits="userSpaceOnUse" gradientTransform="matrix(1.11942e-14,-182.815,586.067,3.58863e-14,42.5864,35.905)"><stop offset="0" style="stop-color:rgb(220,218,214);stop-opacity:1"/><stop offset="1" style="stop-color:rgb(220,218,214);stop-opacity:1"/></linearGradient>
        <linearGradient id="_Linear10" x1="0" y1="0" x2="1" y2="0" gradientUnits="userSpaceOnUse" gradientTransform="matrix(-5.52179,146.323,-864.663,-32.6297,30.2601,-1.72561)"><stop offset="0" style="stop-color:rgb(199,206,198);stop-opacity:1"/><stop offset="1" style="stop-color:rgb(199,206,198);stop-opacity:1"/></linearGradient>
        <linearGradient id="_Linear12" x1="0" y1="0" x2="1" y2="0" gradientUnits="userSpaceOnUse" gradientTransform="matrix(3.93637e-15,-64.2858,52.1101,3.19082e-15,-43.0663,13.3551)"><stop offset="0" style="stop-color:rgb(199,206,198);stop-opacity:1"/><stop offset="1" style="stop-color:rgb(199,206,198);stop-opacity:1"/></linearGradient>
        <linearGradient id="_Linear13" x1="0" y1="0" x2="1" y2="0" gradientUnits="userSpaceOnUse" gradientTransform="matrix(1.11942e-14,-182.815,586.067,3.58863e-14,-42.5864,35.905)"><stop offset="0" style="stop-color:rgb(220,218,214);stop-opacity:1"/><stop offset="1" style="stop-color:rgb(220,218,214);stop-opacity:1"/></linearGradient>
        <linearGradient id="_Linear14" x1="0" y1="0" x2="1" y2="0" gradientUnits="userSpaceOnUse" gradientTransform="matrix(5.53998,146.806,-867.512,32.7372,-29.4051,-1.75788)"><stop offset="0" style="stop-color:rgb(199,206,198);stop-opacity:1"/><stop offset="1" style="stop-color:rgb(199,206,198);stop-opacity:1"/></linearGradient>
    </defs>
</svg>
