<?xml version="1.0" encoding="UTF-8" standalone="no"?>
<!DOCTYPE svg PUBLIC "-//W3C//DTD SVG 1.1//EN" "http://www.w3.org/Graphics/SVG/1.1/DTD/svg11.dtd">
<svg width="100%" height="100%" viewBox="0 0 332 48" version="1.1" xmlns="http://www.w3.org/2000/svg" xmlns:xlink="http://www.w3.org/1999/xlink" xml:space="preserve" xmlns:serif="http://www.serif.com/" style="fill-rule:evenodd;clip-rule:evenodd;stroke-linejoin:round;stroke-miterlimit:2;">
    <g transform="matrix(1,0,0,1,0.5,0)">
        <g transform="matrix(1,0,0,1,317.532,31.2843)">
            <path d="M0,14.154C-0.271,14.154 -0.541,14.069 -0.771,13.903C-1.173,13.61 -1.375,13.114 -1.291,12.622L-0.691,9.128L-3.23,6.653C-3.588,6.304 -3.716,5.785 -3.563,5.31C-3.407,4.836 -2.997,4.49 -2.504,4.419L1.004,3.908L2.573,0.729C2.794,0.282 3.25,0 3.749,0C4.247,0 4.703,0.282 4.924,0.729L6.492,3.908L10.001,4.419C10.494,4.49 10.904,4.836 11.059,5.31C11.213,5.785 11.084,6.304 10.728,6.653L8.188,9.128L8.788,12.622C8.872,13.114 8.67,13.61 8.267,13.903C8.038,14.069 7.768,14.154 7.496,14.154C7.287,14.154 7.078,14.103 6.887,14.003L3.749,12.354L0.61,14.003C0.419,14.103 0.209,14.154 0,14.154M-0.523,1.806L-2.833,2.142C-4.203,2.341 -5.32,3.282 -5.749,4.599C-6.177,5.916 -5.827,7.333 -4.836,8.3L-3.163,9.93L-3.559,12.235C-3.791,13.598 -3.24,14.951 -2.122,15.763C-1.501,16.216 -0.767,16.454 0,16.454C0.584,16.454 1.165,16.309 1.68,16.039L3.749,14.952L5.816,16.039C6.334,16.31 6.915,16.454 7.496,16.454C8.263,16.454 8.997,16.217 9.618,15.764C10.737,14.951 11.288,13.598 11.055,12.233L10.66,9.93L12.336,8.299C13.324,7.331 13.673,5.913 13.246,4.599C12.817,3.282 11.7,2.341 10.332,2.142L8.02,1.806L6.986,-0.288C6.374,-1.53 5.134,-2.3 3.749,-2.3C2.364,-2.3 1.123,-1.53 0.511,-0.289L-0.523,1.806" style="fill-rule:nonzero;"/>
        </g>
        <g transform="matrix(1,0,0,1,297.583,47.7376)">
            <path d="M0,-47.605C-5.959,-47.605 -10.78,-42.851 -10.78,-37.026L-10.78,-34.615C-10.78,-33.878 -11.449,-33.209 -12.253,-33.209C-13.057,-33.209 -13.728,-33.878 -13.728,-34.615L-13.728,-37.026C-13.728,-42.984 -18.413,-47.605 -24.371,-47.605C-30.197,-47.605 -35.018,-42.984 -35.018,-37.026L-35.018,-10.646C-35.018,-4.621 -30.197,0 -24.371,0C-18.413,0 -13.728,-4.621 -13.728,-10.646L-13.728,-12.922C-13.728,-13.726 -13.057,-14.395 -12.253,-14.395C-11.449,-14.395 -10.78,-13.726 -10.78,-12.922L-10.78,-10.646C-10.78,-4.753 -5.959,0 0,0C5.824,0 10.645,-4.753 10.645,-10.646L10.645,-37.026C10.645,-42.851 5.824,-47.605 0,-47.605M0,-45.305C4.602,-45.305 8.345,-41.591 8.345,-37.026L8.345,-10.646C8.345,-6.043 4.602,-2.299 0,-2.299C-4.676,-2.299 -8.48,-6.043 -8.48,-10.646L-8.48,-12.922C-8.48,-15.002 -10.173,-16.695 -12.253,-16.695C-14.334,-16.695 -16.026,-15.002 -16.026,-12.922L-16.026,-10.646C-16.026,-5.888 -19.614,-2.299 -24.371,-2.299C-29.052,-2.299 -32.718,-5.965 -32.718,-10.646L-32.718,-37.026C-32.718,-41.591 -28.974,-45.305 -24.371,-45.305C-19.692,-45.305 -16.026,-41.668 -16.026,-37.026L-16.026,-34.615C-16.026,-32.606 -14.299,-30.91 -12.253,-30.91C-10.208,-30.91 -8.48,-32.606 -8.48,-34.615L-8.48,-37.026C-8.48,-41.591 -4.676,-45.305 0,-45.305" style="fill-rule:nonzero;"/>
        </g>
        <g transform="matrix(1,0,0,1,247.903,47.6702)">
            <path d="M0,-47.604L-9.373,-47.604C-22.43,-47.403 -33.075,-37.092 -33.075,-23.835C-33.075,-11.18 -22.563,0 -9.709,0L0,0C6.227,0 11.314,-5.29 11.314,-11.315C11.314,-17.608 6.227,-22.965 0,-22.965C-3.348,-22.965 -5.959,-21.424 -7.968,-21.424C-9.373,-21.424 -10.579,-22.497 -10.579,-23.835C-10.579,-25.241 -9.373,-26.446 -7.968,-26.446C-5.959,-26.446 -3.348,-24.907 0,-24.907C6.227,-24.907 11.314,-29.928 11.314,-36.221C11.314,-42.248 6.227,-47.604 0,-47.604M0,-45.304C4.803,-45.304 9.016,-41.06 9.016,-36.221C9.016,-31.25 4.971,-27.207 0,-27.207C-1.554,-27.207 -2.965,-27.625 -4.329,-28.028C-5.578,-28.397 -6.758,-28.746 -7.968,-28.746C-10.63,-28.746 -12.879,-26.498 -12.879,-23.835C-12.879,-21.238 -10.676,-19.125 -7.968,-19.125C-6.758,-19.125 -5.578,-19.473 -4.329,-19.843C-2.964,-20.248 -1.553,-20.666 0,-20.666C4.887,-20.666 9.016,-16.383 9.016,-11.315C9.016,-6.428 4.887,-2.299 0,-2.299L-9.709,-2.299C-21.128,-2.299 -30.775,-12.162 -30.775,-23.835C-30.775,-35.689 -21.358,-45.119 -9.373,-45.304L0,-45.304" style="fill-rule:nonzero;"/>
        </g>
        <g transform="matrix(1,0,0,1,190.562,10.7786)">
            <path d="M0,26.313L0,24.037C0,23.233 -0.669,22.564 -1.473,22.564C-2.276,22.564 -2.945,23.233 -2.945,24.037L-2.945,26.313C-2.945,32.338 -7.633,36.959 -13.592,36.959C-19.416,36.959 -24.237,32.338 -24.237,26.313L-24.237,-0.067C-24.237,-6.025 -19.416,-10.646 -13.592,-10.646C-7.633,-10.646 -2.945,-6.025 -2.945,-0.067L-2.945,2.344C-2.945,3.081 -2.276,3.75 -1.473,3.75C-0.669,3.75 0,3.081 0,2.344L0,-0.067C0,-5.892 4.82,-10.646 10.779,-10.646C16.603,-10.646 21.424,-5.892 21.424,-0.067L21.424,26.313C21.424,32.206 16.603,36.959 10.779,36.959C4.82,36.959 0,32.206 0,26.313" style="fill-rule:nonzero;"/>
        </g>
        <g transform="matrix(1,0,0,1,151.829,47.6702)">
            <path d="M0,-47.604C6.227,-47.604 11.315,-42.248 11.315,-36.221C11.315,-29.928 6.227,-24.907 0,-24.907C-3.348,-24.907 -5.958,-26.446 -7.967,-26.446C-9.374,-26.446 -10.579,-25.241 -10.579,-23.835C-10.579,-22.497 -9.374,-21.424 -7.967,-21.424C-5.958,-21.424 -3.348,-22.965 0,-22.965C6.227,-22.965 11.315,-17.608 11.315,-11.315C11.315,-5.29 6.227,0 0,0L-9.708,0C-22.563,0 -33.075,-11.18 -33.075,-23.835C-33.075,-37.092 -22.43,-47.403 -9.374,-47.604L0,-47.604Z" style="fill-rule:nonzero;"/>
        </g>
        <g transform="matrix(1,0,0,1,84.0568,10.847)">
            <path d="M0,25.977L0,-0.203C0,-6.027 4.753,-10.847 10.646,-10.847C16.604,-10.847 21.358,-6.027 21.358,-0.203L21.224,15.399L23.568,15.399C37.494,15.399 37.494,36.824 23.568,36.824L10.846,36.824C4.62,36.824 -0.201,32.137 0,25.977" style="fill-rule:nonzero;"/>
        </g>
        <g transform="matrix(1,0,0,1,59.1085,10.9804)">
            <path d="M0,25.91L0,-0.201C0,-6.028 4.687,-10.713 10.579,-10.713C16.671,-10.713 21.359,-6.028 21.359,-0.201L21.359,25.91C21.359,31.736 16.671,36.623 10.579,36.623C4.687,36.623 0,31.736 0,25.91" style="fill-rule:nonzero;"/>
        </g>
        <g transform="matrix(1,0,0,1,44.713,47.6044)">
            <path d="M0,-47.337C-3.737,-47.337 -5.522,-46.208 -8.863,-42.581C-12.204,-38.956 -15.61,-34.627 -15.61,-34.627C-15.449,-34.316 -12.945,-29.959 -12.908,-29.445C-12.872,-28.931 -13.349,-29.243 -13.704,-29.556C-14.141,-29.94 -22.787,-39.785 -25.106,-42.625C-27.426,-45.465 -30.289,-47.337 -34.134,-47.337C-40.026,-47.337 -44.713,-42.649 -44.713,-36.825L-44.713,-10.713C-44.713,-4.888 -40.026,0 -34.134,0C-29.87,0 -26.31,-2.401 -24.551,-5.836C-25.025,-6.555 -28.111,-11.071 -28.365,-11.704C-28.576,-12.232 -28.304,-12.14 -28.164,-12.089C-28.096,-12.064 -27.791,-11.978 -25.543,-9.718C-24.95,-9.12 -23.718,-7.989 -23.716,-7.999C-21.889,-6.554 -19.505,-5.62 -16.966,-5.62C-14.326,-5.62 -12.005,-6.548 -10.215,-7.985C-10.213,-7.98 -5.942,-11.944 -5.77,-12.089C-5.597,-12.233 -5.291,-12.232 -5.568,-11.704C-5.885,-11.101 -8.91,-6.552 -9.386,-5.831C-7.637,-2.399 -4.121,0 0,0C6.093,0 10.78,-4.888 10.78,-10.713L10.78,-36.825C10.78,-42.649 6.093,-47.337 0,-47.337" style="fill-rule:nonzero;"/>
        </g>
    </g>
</svg>
