<?xml version="1.0" encoding="UTF-8" standalone="no"?>
<!DOCTYPE svg PUBLIC "-//W3C//DTD SVG 1.1//EN" "http://www.w3.org/Graphics/SVG/1.1/DTD/svg11.dtd">
<svg width="100%" height="100%" viewBox="0 0 1089 130" version="1.1" xmlns="http://www.w3.org/2000/svg" xmlns:xlink="http://www.w3.org/1999/xlink" xml:space="preserve" xmlns:serif="http://www.serif.com/" style="fill-rule:evenodd;clip-rule:evenodd;stroke-linejoin:round;stroke-miterlimit:2;">
    <g transform="matrix(2.66573,0,0,2.66573,1039.2,17.4789)">
        <path d="M0,38.429C-3.95,34.613 -7.767,30.997 -11.517,27.047C-11.717,26.646 -12.319,27.248 -12.119,27.716L-8.303,33.609C-9.307,38.229 -13.658,41.71 -18.681,41.71C-24.572,41.71 -29.393,37.023 -29.393,30.997L-29.393,4.617C-29.393,-1.208 -24.572,-6.094 -18.681,-6.094C-15.466,-6.094 -12.521,-4.354 -10.512,-2.345L0.401,8.367C0.603,8.769 1.205,8.367 1.004,7.966L-2.946,2.207C-1.941,-2.345 2.41,-6.094 7.365,-6.094C13.324,-6.094 18.145,-1.208 18.145,4.617L18.145,30.997C18.145,41.308 6.025,44.523 0,38.429" style="fill-rule:nonzero;stroke:black;stroke-width:0.5px;"/>
    </g>
    <g transform="matrix(2.66573,0,0,2.66573,765.205,29.9663)">
        <path d="M0,26.313L0,24.037C0,23.233 -0.669,22.564 -1.473,22.564C-2.276,22.564 -2.946,23.233 -2.946,24.037L-2.946,26.313C-2.946,32.338 -7.633,36.959 -13.591,36.959C-19.417,36.959 -24.237,32.338 -24.237,26.313L-24.237,-0.067C-24.237,-6.025 -19.417,-10.646 -13.591,-10.646C-7.633,-10.646 -2.946,-6.025 -2.946,-0.067L-2.946,2.344C-2.946,3.081 -2.276,3.75 -1.473,3.75C-0.669,3.75 0,3.081 0,2.344L0,-0.067C0,-5.892 4.821,-10.646 10.78,-10.646C16.604,-10.646 21.425,-5.892 21.425,-0.067L21.425,26.313C21.425,32.206 16.604,36.959 10.78,36.959C4.821,36.959 0,32.206 0,26.313" style="fill-rule:nonzero;stroke:black;stroke-width:0.5px;"/>
    </g>
    <g transform="matrix(2.66573,0,0,2.66573,661.51,128.31)">
        <path d="M0,-47.604C6.227,-47.604 11.315,-42.248 11.315,-36.221C11.315,-29.928 6.227,-24.907 0,-24.907C-3.348,-24.907 -5.959,-26.446 -7.968,-26.446C-9.373,-26.446 -10.579,-25.241 -10.579,-23.835C-10.579,-22.497 -9.373,-21.424 -7.968,-21.424C-5.959,-21.424 -3.348,-22.965 0,-22.965C6.227,-22.965 11.315,-17.608 11.315,-11.315C11.315,-5.29 6.227,0 0,0L-9.709,0C-22.563,0 -33.075,-11.18 -33.075,-23.835C-33.075,-37.092 -22.43,-47.403 -9.373,-47.604L0,-47.604Z" style="fill-rule:nonzero;stroke:black;stroke-width:0.5px;"/>
    </g>
    <g transform="matrix(2.66573,0,0,2.66573,508.653,29.9663)">
        <path d="M0,26.313L0,24.037C0,23.233 -0.669,22.564 -1.473,22.564C-2.276,22.564 -2.945,23.233 -2.945,24.037L-2.945,26.313C-2.945,32.338 -7.633,36.959 -13.592,36.959C-19.416,36.959 -24.237,32.338 -24.237,26.313L-24.237,-0.067C-24.237,-6.025 -19.416,-10.646 -13.592,-10.646C-7.633,-10.646 -2.945,-6.025 -2.945,-0.067L-2.945,2.344C-2.945,3.081 -2.276,3.75 -1.473,3.75C-0.669,3.75 0,3.081 0,2.344L0,-0.067C0,-5.892 4.82,-10.646 10.779,-10.646C16.603,-10.646 21.424,-5.892 21.424,-0.067L21.424,26.313C21.424,32.206 16.603,36.959 10.779,36.959C4.82,36.959 0,32.206 0,26.313" style="fill-rule:nonzero;stroke:black;stroke-width:0.5px;"/>
    </g>
    <g transform="matrix(2.66573,0,0,2.66573,405.402,128.31)">
        <path d="M0,-47.604C6.227,-47.604 11.315,-42.248 11.315,-36.221C11.315,-29.928 6.227,-24.907 0,-24.907C-3.348,-24.907 -5.958,-26.446 -7.967,-26.446C-9.374,-26.446 -10.579,-25.241 -10.579,-23.835C-10.579,-22.497 -9.374,-21.424 -7.967,-21.424C-5.958,-21.424 -3.348,-22.965 0,-22.965C6.227,-22.965 11.315,-17.608 11.315,-11.315C11.315,-5.29 6.227,0 0,0L-9.708,0C-22.563,0 -33.075,-11.18 -33.075,-23.835C-33.075,-37.092 -22.43,-47.403 -9.374,-47.604L0,-47.604Z" style="fill-rule:nonzero;stroke:black;stroke-width:0.5px;"/>
    </g>
    <g transform="matrix(2.66573,0,0,2.66573,224.74,30.1487)">
        <path d="M0,25.977L0,-0.203C0,-6.027 4.753,-10.847 10.646,-10.847C16.604,-10.847 21.358,-6.027 21.358,-0.203L21.224,15.399L23.568,15.399C37.494,15.399 37.494,36.824 23.568,36.824L10.846,36.824C4.62,36.824 -0.201,32.137 0,25.977" style="fill-rule:nonzero;stroke:black;stroke-width:0.5px;"/>
    </g>
    <g transform="matrix(2.66573,0,0,2.66573,158.234,30.5043)">
        <path d="M0,25.91L0,-0.201C0,-6.027 4.687,-10.713 10.579,-10.713C16.671,-10.713 21.359,-6.027 21.359,-0.201L21.359,25.91C21.359,31.736 16.671,36.623 10.579,36.623C4.687,36.623 0,31.736 0,25.91" style="fill-rule:nonzero;stroke:black;stroke-width:0.5px;"/>
    </g>
    <g transform="matrix(2.66573,0,0,2.66573,119.86,128.134)">
        <path d="M0,-47.337C-3.737,-47.337 -5.522,-46.208 -8.863,-42.581C-12.204,-38.956 -15.61,-34.627 -15.61,-34.627C-15.449,-34.316 -12.945,-29.959 -12.908,-29.445C-12.872,-28.931 -13.349,-29.243 -13.704,-29.556C-14.141,-29.94 -22.787,-39.785 -25.106,-42.625C-27.426,-45.465 -30.289,-47.337 -34.134,-47.337C-40.026,-47.337 -44.713,-42.65 -44.713,-36.825L-44.713,-10.713C-44.713,-4.888 -40.026,0 -34.134,0C-29.87,0 -26.31,-2.401 -24.551,-5.836C-25.025,-6.555 -28.111,-11.071 -28.365,-11.704C-28.576,-12.232 -28.304,-12.14 -28.164,-12.089C-28.096,-12.064 -27.791,-11.978 -25.543,-9.718C-24.95,-9.12 -23.718,-7.989 -23.716,-7.999C-21.889,-6.554 -19.505,-5.62 -16.966,-5.62C-14.326,-5.62 -12.005,-6.548 -10.215,-7.985C-10.213,-7.98 -5.942,-11.944 -5.77,-12.089C-5.597,-12.233 -5.291,-12.232 -5.568,-11.704C-5.885,-11.101 -8.91,-6.552 -9.386,-5.831C-7.637,-2.399 -4.121,0 0,0C6.093,0 10.78,-4.888 10.78,-10.713L10.78,-36.825C10.78,-42.65 6.093,-47.337 0,-47.337" style="fill-rule:nonzero;stroke:black;stroke-width:0.5px;"/>
    </g>
    <g transform="matrix(2.66573,0,0,2.66573,910.786,72.8974)">
        <path d="M0,-6.241L-2.539,-3.766L-1.939,-0.272C-1.855,0.22 -2.058,0.716 -2.461,1.009C-2.689,1.175 -2.96,1.26 -3.231,1.26C-3.44,1.26 -3.649,1.209 -3.841,1.109L-6.979,-0.54L-10.117,1.109C-10.559,1.341 -11.093,1.303 -11.497,1.009C-11.9,0.716 -12.103,0.22 -12.019,-0.272L-11.419,-3.766L-13.958,-6.241C-14.315,-6.59 -14.443,-7.109 -14.289,-7.584C-14.135,-8.058 -13.725,-8.404 -13.231,-8.475L-9.724,-8.986L-8.154,-12.165C-7.934,-12.612 -7.478,-12.894 -6.979,-12.894C-6.48,-12.894 -6.024,-12.612 -5.804,-12.165L-4.235,-8.986L-0.727,-8.475C-0.233,-8.404 0.177,-8.058 0.331,-7.584C0.485,-7.109 0.356,-6.59 0,-6.241M-6.979,-27.096C-19.59,-27.096 -29.812,-16.874 -29.812,-4.264L-29.811,10.208C-29.811,16.234 -24.99,20.855 -19.165,20.855C-13.206,20.855 -8.52,16.234 -8.52,10.208L-8.52,7.932C-8.52,7.128 -7.85,6.459 -7.047,6.459C-6.242,6.459 -5.573,7.128 -5.573,7.932L-5.573,10.208C-5.573,16.101 -0.752,20.855 5.206,20.855C11.031,20.855 15.852,16.101 15.852,10.208L15.854,-4.264C15.854,-16.874 5.631,-27.096 -6.979,-27.096" style="fill-rule:nonzero;stroke:black;stroke-width:0.5px;"/>
    </g>
</svg>
