<?xml version="1.0" encoding="UTF-8" standalone="no"?>
<!DOCTYPE svg PUBLIC "-//W3C//DTD SVG 1.1//EN" "http://www.w3.org/Graphics/SVG/1.1/DTD/svg11.dtd">
<svg width="100%" height="100%" viewBox="0 0 1266 130" version="1.1" xmlns="http://www.w3.org/2000/svg" xmlns:xlink="http://www.w3.org/1999/xlink" xml:space="preserve" xmlns:serif="http://www.serif.com/" style="fill-rule:evenodd;clip-rule:evenodd;stroke-linejoin:round;stroke-miterlimit:2;">
    <g transform="matrix(3.39503,0,0,3.39503,728.554,68.5575)">
        <path d="M0,-1.181C-0.47,-1.189 -0.915,-1.181 -1.381,-1.461C-1.644,-1.619 -1.804,-1.904 -1.804,-2.21L-1.804,-5.225C-1.804,-5.532 -1.644,-5.816 -1.381,-5.974C-1.065,-6.164 -0.655,-6.359 0,-6.359C1.532,-6.359 2.485,-5.338 2.485,-3.718C2.485,-2.13 1.157,-1.16 0,-1.181M11.261,0.389C11.056,0.054 11.326,-0.421 11.648,-0.187C12.688,0.634 13.655,1.61 14.701,2.391C15.951,0.298 16.399,-2.175 16.399,-4.656C16.399,-12.762 9.841,-19.32 1.735,-19.32L-9.829,-19.32C-14.425,-19.32 -18.194,-15.704 -18.194,-11.161L-18.194,9.078C-18.194,13.673 -14.425,17.442 -9.985,17.442C-5.493,17.442 -1.981,14.086 -1.724,9.749L2.716,15.014C5.504,18.784 11.08,18.215 14.023,15.274C16.967,12.331 17.38,7.993 15.056,4.689L11.261,0.389ZM-41.434,-19.402L-25.57,-19.396C-22.448,-19.396 -19.906,-16.771 -19.906,-13.544C-19.906,-10.318 -22.448,-7.693 -25.57,-7.693C-25.57,-7.693 -32.601,-7.702 -32.626,-7.702C-33.022,-7.702 -33.344,-7.381 -33.344,-6.986C-33.344,-6.589 -33.022,-6.268 -32.626,-6.268C-32.601,-6.268 -26.312,-6.274 -26.312,-6.274C-23.501,-6.274 -21.213,-3.91 -21.213,-1.005C-21.213,1.899 -23.501,4.263 -26.311,4.263C-26.311,4.263 -32.553,4.213 -32.626,4.213C-33.022,4.213 -33.344,4.534 -33.344,4.93C-33.344,5.325 -33.022,5.647 -32.626,5.647C-32.601,5.647 -25.57,5.635 -25.57,5.635C-22.448,5.635 -19.906,8.26 -19.906,11.487C-19.906,14.714 -22.448,17.34 -25.572,17.34L-41.425,17.329C-46.528,17.232 -50.854,13.11 -50.854,8.065L-50.854,-9.973C-50.854,-15.083 -46.541,-19.402 -41.434,-19.402M-165.988,-9.483C-166.708,-6.759 -171.428,8.903 -172.148,11.627C-173.319,16.055 -177.858,18.696 -182.286,17.526C-186.391,16.442 -189.206,12.467 -188.668,8.368L-187.297,3.297C-187.187,2.932 -187.115,2.694 -187.37,2.676C-187.571,2.663 -187.656,2.892 -187.684,2.944C-187.684,2.944 -191.335,11.24 -192.885,13.737C-193.956,15.544 -195.805,16.948 -197.996,17.526C-202.424,18.696 -206.963,16.055 -208.134,11.627C-208.853,8.903 -213.381,-6.759 -214.101,-9.483C-215.271,-13.911 -212.631,-18.451 -208.201,-19.62C-204.575,-20.579 -200.781,-18.883 -198.917,-15.841L-200.98,-9.619C-200.996,-9.561 -201.023,-9.173 -200.728,-9.122C-200.441,-9.073 -200.272,-9.372 -200.249,-9.425L-197.072,-15.999C-195.236,-18.874 -191.651,-20.567 -188.176,-19.648C-185.105,-18.837 -182.92,-16.358 -182.333,-13.441C-182.297,-13.261 -182.266,-13.079 -182.243,-12.897C-182.148,-13.252 -182.074,-13.533 -182.025,-13.721C-180.854,-18.151 -176.315,-20.791 -171.887,-19.62C-167.458,-18.451 -164.816,-13.911 -165.988,-9.483M-146.702,1.768C-148.282,1.768 -149.563,0.486 -149.563,-1.094C-149.563,-2.673 -148.282,-3.954 -146.702,-3.954C-145.122,-3.954 -143.842,-2.673 -143.842,-1.094C-143.842,0.486 -145.122,1.768 -146.702,1.768M-146.754,-19.835C-156.977,-19.835 -165.496,-11.369 -165.496,-1.042C-165.496,9.336 -156.977,17.648 -146.754,17.648C-136.376,17.648 -127.909,9.336 -127.909,-1.042C-127.909,-11.369 -136.376,-19.835 -146.754,-19.835M107.545,14.912C104.499,11.969 101.557,9.181 98.664,6.134C98.51,5.825 98.045,6.29 98.199,6.651L101.144,11.194C100.368,14.757 97.013,17.442 93.141,17.442C88.597,17.442 84.88,13.827 84.88,9.181L84.88,-11.161C84.88,-15.654 88.597,-19.422 93.141,-19.422C95.618,-19.422 97.89,-18.079 99.439,-16.531L107.854,-8.271C108.01,-7.96 108.475,-8.271 108.319,-8.579L105.273,-13.021C106.049,-16.531 109.403,-19.422 113.225,-19.422C117.819,-19.422 121.537,-15.654 121.537,-11.161L121.537,9.181C121.537,17.131 112.192,19.61 107.545,14.912M-70.243,1.619L-71.327,1.619C-71.811,1.619 -72.203,1.227 -72.203,0.743L-72.203,-3.128C-72.203,-3.612 -71.811,-4.003 -71.327,-4.003L-70.243,-4.003C-68.623,-4.003 -67.354,-2.735 -67.354,-1.115C-67.354,0.444 -68.596,1.619 -70.243,1.619M-70.883,-19.422L-78.835,-19.422C-83.482,-19.422 -87.044,-15.654 -87.044,-11.161L-87.044,9.233C-87.044,13.724 -83.327,17.287 -78.68,17.287L-71.245,17.287C-61.074,17.287 -52.813,9.078 -52.813,-1.093C-52.813,-11.161 -60.816,-19.422 -70.883,-19.422M18.717,8.974L18.717,-11.213C18.717,-15.704 22.383,-19.422 26.927,-19.422C31.521,-19.422 35.188,-15.704 35.188,-11.213L35.084,0.817L36.891,0.817C47.63,0.817 47.63,17.339 36.891,17.339L27.082,17.339C22.279,17.339 18.563,13.724 18.717,8.974M64.861,1.524C63.281,1.524 62,0.243 62,-1.337C62,-2.916 63.281,-4.198 64.861,-4.198C66.441,-4.198 67.722,-2.916 67.722,-1.337C67.722,0.243 66.441,1.524 64.861,1.524M64.769,-19.559C55.068,-19.559 47.206,-11.697 47.206,-1.999L47.207,9.133C47.207,13.768 50.914,17.321 55.395,17.321C59.979,17.321 63.582,13.768 63.582,9.133L63.582,7.382C63.582,6.764 64.098,6.249 64.716,6.249C65.335,6.249 65.849,6.764 65.849,7.382L65.849,9.133C65.849,13.665 69.557,17.321 74.14,17.321C78.62,17.321 82.327,13.665 82.327,9.133L82.329,-1.999C82.329,-11.697 74.467,-19.559 64.769,-19.559M-103.356,14.912C-106.403,11.969 -109.346,9.181 -112.237,6.134C-112.392,5.825 -112.856,6.29 -112.702,6.651L-109.759,11.194C-110.533,14.757 -113.889,17.442 -117.762,17.442C-122.305,17.442 -126.022,13.827 -126.022,9.181L-126.022,-11.161C-126.022,-15.654 -122.305,-19.422 -117.762,-19.422C-115.283,-19.422 -113.011,-18.079 -111.463,-16.531L-103.046,-8.271C-102.892,-7.96 -102.428,-8.271 -102.583,-8.579L-105.628,-13.021C-104.854,-16.531 -101.498,-19.422 -97.677,-19.422C-93.083,-19.422 -89.365,-15.654 -89.365,-11.161L-89.365,9.181C-89.365,17.131 -98.71,19.61 -103.356,14.912M140.658,1.619L139.573,1.619C139.09,1.619 138.698,1.227 138.698,0.743L138.698,-3.128C138.698,-3.612 139.09,-4.003 139.573,-4.003L140.658,-4.003C142.278,-4.003 143.547,-2.735 143.547,-1.115C143.547,0.444 142.305,1.619 140.658,1.619M140.017,-19.422L132.065,-19.422C127.418,-19.422 123.856,-15.654 123.856,-11.161L123.856,9.233C123.856,13.724 127.574,17.287 132.221,17.287L139.655,17.287C149.826,17.287 158.088,9.078 158.088,-1.093C158.088,-11.161 150.084,-19.422 140.017,-19.422" style="fill-rule:nonzero;"/>
    </g>
</svg>
