<?xml version="1.0" encoding="UTF-8" standalone="no"?>
<!DOCTYPE svg PUBLIC "-//W3C//DTD SVG 1.1//EN" "http://www.w3.org/Graphics/SVG/1.1/DTD/svg11.dtd">
<svg width="100%" height="100%" viewBox="0 0 374 38" version="1.1" xmlns="http://www.w3.org/2000/svg" xmlns:xlink="http://www.w3.org/1999/xlink" xml:space="preserve" xmlns:serif="http://www.serif.com/" style="fill-rule:evenodd;clip-rule:evenodd;stroke-linejoin:round;stroke-miterlimit:2;">
    <g transform="matrix(1,0,0,1,-111.248,-401.433)">
        <g transform="matrix(1,0,0,1,467.051,417.726)">
            <path d="M0,5.373L-1.085,5.373C-1.568,5.373 -1.96,4.981 -1.96,4.497L-1.96,0.626C-1.96,0.143 -1.568,-0.249 -1.085,-0.249L0,-0.249C1.62,-0.249 2.889,1.019 2.889,2.64C2.889,4.198 1.646,5.373 0,5.373M-0.642,-15.668L-8.593,-15.668C-13.24,-15.668 -16.802,-11.899 -16.802,-7.407L-16.802,12.987C-16.802,17.478 -13.084,21.041 -8.438,21.041L-1.003,21.041C9.168,21.041 17.43,12.832 17.43,2.661C17.43,-7.407 9.426,-15.668 -0.642,-15.668" style="fill-rule:nonzero;"/>
        </g>
        <g transform="matrix(1,0,0,1,433.938,406.756)">
            <path d="M0,29.636C-3.046,26.694 -5.988,23.906 -8.881,20.859C-9.035,20.549 -9.5,21.014 -9.346,21.375L-6.401,25.918C-7.177,29.481 -10.532,32.166 -14.404,32.166C-18.948,32.166 -22.665,28.551 -22.665,23.906L-22.665,3.563C-22.665,-0.929 -18.948,-4.698 -14.404,-4.698C-11.927,-4.698 -9.655,-3.355 -8.105,-1.806L0.309,6.453C0.465,6.764 0.93,6.453 0.774,6.145L-2.271,1.703C-1.496,-1.806 1.858,-4.698 5.68,-4.698C10.274,-4.698 13.992,-0.929 13.992,3.563L13.992,23.906C13.992,31.855 4.647,34.334 0,29.636" style="fill-rule:nonzero;"/>
        </g>
        <g transform="matrix(1,0,0,1,391.254,417.718)">
            <path d="M0,5.286C-1.58,5.286 -2.861,4.005 -2.861,2.425C-2.861,0.846 -1.58,-0.436 0,-0.436C1.58,-0.436 2.86,0.846 2.86,2.425C2.86,4.005 1.58,5.286 0,5.286M-0.093,-15.797C-9.793,-15.797 -17.655,-7.935 -17.655,1.763L-17.654,12.895C-17.654,17.53 -13.947,21.083 -9.467,21.083C-4.883,21.083 -1.279,17.53 -1.279,12.895L-1.279,11.143C-1.279,10.526 -0.764,10.011 -0.146,10.011C0.474,10.011 0.987,10.526 0.987,11.143L0.987,12.895C0.987,17.427 4.695,21.083 9.278,21.083C13.759,21.083 17.466,17.427 17.466,12.895L17.468,1.763C17.468,-7.935 9.605,-15.797 -0.093,-15.797" style="fill-rule:nonzero;"/>
        </g>
        <g transform="matrix(1,0,0,1,345.109,410.423)">
            <path d="M0,20.032L0,-0.156C0,-4.647 3.666,-8.364 8.21,-8.364C12.805,-8.364 16.472,-4.647 16.472,-0.156L16.367,11.875L18.174,11.875C28.913,11.875 28.913,28.396 18.174,28.396L8.365,28.396C3.563,28.396 -0.154,24.782 0,20.032" style="fill-rule:nonzero;"/>
        </g>
        <g transform="matrix(1,0,0,1,326.393,422.125)">
            <path d="M0,-1.826C-0.47,-1.834 -0.915,-1.826 -1.381,-2.106C-1.644,-2.264 -1.804,-2.549 -1.804,-2.855L-1.804,-5.87C-1.804,-6.177 -1.644,-6.461 -1.381,-6.619C-1.065,-6.809 -0.655,-7.004 0,-7.004C1.532,-7.004 2.485,-5.983 2.485,-4.363C2.485,-2.775 1.157,-1.805 0,-1.826M11.261,-0.256C11.056,-0.591 11.326,-1.066 11.648,-0.832C12.688,-0.011 13.655,0.965 14.701,1.746C15.951,-0.347 16.399,-2.82 16.399,-5.301C16.399,-13.407 9.841,-19.965 1.735,-19.965L-9.829,-19.965C-14.425,-19.965 -18.194,-16.349 -18.194,-11.806L-18.194,8.433C-18.194,13.028 -14.425,16.797 -9.985,16.797C-5.493,16.797 -1.981,13.441 -1.724,9.104L2.716,14.369C5.504,18.139 11.08,17.57 14.023,14.629C16.967,11.686 17.38,7.348 15.056,4.044L11.261,-0.256Z" style="fill-rule:nonzero;"/>
        </g>
        <g transform="matrix(1,0,0,1,284.959,438.82)">
            <path d="M0,-36.741L15.864,-36.735C18.986,-36.735 21.528,-34.11 21.528,-30.884C21.528,-27.657 18.986,-25.032 15.864,-25.032C15.864,-25.032 8.833,-25.042 8.808,-25.042C8.412,-25.042 8.09,-24.72 8.09,-24.325C8.09,-23.928 8.412,-23.607 8.808,-23.607C8.833,-23.607 15.123,-23.613 15.123,-23.613C17.933,-23.613 20.221,-21.25 20.221,-18.345C20.221,-15.44 17.933,-13.076 15.124,-13.076C15.124,-13.076 8.881,-13.127 8.808,-13.127C8.412,-13.127 8.09,-12.805 8.09,-12.409C8.09,-12.014 8.412,-11.692 8.808,-11.692C8.833,-11.692 15.864,-11.704 15.864,-11.704C18.986,-11.704 21.528,-9.079 21.528,-5.852C21.528,-2.626 18.986,0 15.862,0L0.009,-0.011C-5.094,-0.107 -9.42,-4.229 -9.42,-9.274L-9.42,-27.312C-9.42,-32.423 -5.107,-36.741 0,-36.741" style="fill-rule:nonzero;"/>
        </g>
        <g transform="matrix(1,0,0,1,256.149,417.726)">
            <path d="M0,5.373L-1.084,5.373C-1.568,5.373 -1.96,4.981 -1.96,4.497L-1.96,0.626C-1.96,0.143 -1.568,-0.249 -1.084,-0.249L0,-0.249C1.62,-0.249 2.889,1.019 2.889,2.64C2.889,4.198 1.647,5.373 0,5.373M-0.64,-15.668L-8.592,-15.668C-13.239,-15.668 -16.801,-11.899 -16.801,-7.407L-16.801,12.987C-16.801,17.478 -13.084,21.041 -8.437,21.041L-1.002,21.041C9.169,21.041 17.43,12.832 17.43,2.661C17.43,-7.407 9.427,-15.668 -0.64,-15.668" style="fill-rule:nonzero;"/>
        </g>
        <g transform="matrix(1,0,0,1,223.037,406.756)">
            <path d="M0,29.636C-3.047,26.694 -5.99,23.906 -8.881,20.859C-9.036,20.549 -9.5,21.014 -9.346,21.375L-6.403,25.918C-7.177,29.481 -10.533,32.166 -14.406,32.166C-18.949,32.166 -22.666,28.551 -22.666,23.906L-22.666,3.563C-22.666,-0.929 -18.949,-4.698 -14.406,-4.698C-11.927,-4.698 -9.655,-3.355 -8.107,-1.806L0.31,6.453C0.464,6.764 0.928,6.453 0.773,6.145L-2.272,1.703C-1.498,-1.806 1.858,-4.698 5.679,-4.698C10.273,-4.698 13.991,-0.929 13.991,3.563L13.991,23.906C13.991,31.855 4.646,34.334 0,29.636" style="fill-rule:nonzero;"/>
        </g>
        <g transform="matrix(1,0,0,1,179.69,417.524)">
            <path d="M0,5.724C-1.58,5.724 -2.861,4.442 -2.861,2.862C-2.861,1.283 -1.58,0.001 0,0.001C1.58,0.001 2.86,1.283 2.86,2.862C2.86,4.442 1.58,5.724 0,5.724M-0.052,-15.88C-10.275,-15.88 -18.794,-7.413 -18.794,2.913C-18.794,13.291 -10.275,21.604 -0.052,21.604C10.326,21.604 18.793,13.291 18.793,2.913C18.793,-7.413 10.326,-15.88 -0.052,-15.88" style="fill-rule:nonzero;"/>
        </g>
        <g transform="matrix(1,0,0,1,160.405,428.868)">
            <path d="M0,-16.87C-0.72,-14.146 -5.44,1.516 -6.16,4.239C-7.331,8.668 -11.87,11.309 -16.298,10.139C-20.403,9.055 -23.218,5.08 -22.68,0.981L-21.309,-4.091C-21.199,-4.455 -21.127,-4.693 -21.382,-4.711C-21.583,-4.724 -21.668,-4.495 -21.696,-4.443C-21.696,-4.443 -25.347,3.853 -26.897,6.35C-27.968,8.156 -29.817,9.561 -32.008,10.139C-36.436,11.309 -40.975,8.668 -42.146,4.239C-42.865,1.516 -47.393,-14.146 -48.113,-16.87C-49.283,-21.299 -46.643,-25.838 -42.213,-27.008C-38.587,-27.967 -34.793,-26.27 -32.929,-23.228L-34.992,-17.006C-35.008,-16.948 -35.035,-16.56 -34.74,-16.51C-34.453,-16.46 -34.284,-16.76 -34.261,-16.812L-31.084,-23.387C-29.248,-26.262 -25.663,-27.954 -22.188,-27.035C-19.117,-26.224 -16.932,-23.745 -16.345,-20.828C-16.309,-20.648 -16.278,-20.467 -16.255,-20.284C-16.16,-20.64 -16.086,-20.92 -16.037,-21.108C-14.866,-25.538 -10.327,-28.179 -5.899,-27.008C-1.47,-25.838 1.172,-21.299 0,-16.87" style="fill-rule:nonzero;"/>
        </g>
    </g>
</svg>
