<?xml version="1.0" encoding="UTF-8" standalone="no"?>
<!DOCTYPE svg PUBLIC "-//W3C//DTD SVG 1.1//EN" "http://www.w3.org/Graphics/SVG/1.1/DTD/svg11.dtd">
<svg width="100%" height="100%" viewBox="0 0 34 34" version="1.1" xmlns="http://www.w3.org/2000/svg" xmlns:xlink="http://www.w3.org/1999/xlink" xml:space="preserve" xmlns:serif="http://www.serif.com/" style="fill-rule:evenodd;clip-rule:evenodd;stroke-linejoin:round;stroke-miterlimit:2;">
    <path d="M17,1C25.831,1 33,8.169 33,17C33,25.831 25.831,33 17,33C8.169,33 1,25.831 1,17C1,8.169 8.169,1 17,1ZM24.93,15.084C24.763,14.569 24.318,14.194 23.783,14.116L19.977,13.563L18.274,10.115C18.036,9.629 17.541,9.322 17,9.322C16.459,9.322 15.965,9.629 15.726,10.114L14.023,13.563L10.218,14.116C9.682,14.194 9.237,14.569 9.07,15.084C8.902,15.599 9.042,16.163 9.43,16.541L12.184,19.225L11.534,23.016C11.442,23.549 11.661,24.088 12.099,24.406C12.537,24.724 13.117,24.766 13.596,24.514L17,22.725L20.404,24.514C20.612,24.623 20.839,24.678 21.065,24.678C21.36,24.678 21.654,24.586 21.901,24.406C22.339,24.088 22.558,23.549 22.467,23.016L21.817,19.225L24.571,16.541C24.958,16.163 25.098,15.599 24.93,15.084Z" style="fill:white;"/>
</svg>
